<?xml version="1.0" encoding="UTF-8" standalone="no" ?>
<!DOCTYPE svg PUBLIC "-//W3C//DTD SVG 1.1//EN" "http://www.w3.org/Graphics/SVG/1.1/DTD/svg11.dtd">
<svg xmlns="http://www.w3.org/2000/svg" xmlns:xlink="http://www.w3.org/1999/xlink" version="1.1" width="1080" height="1080" viewBox="0 0 1080 1080" xml:space="preserve">
<desc>Created with Fabric.js 5.2.4</desc>
<defs>
</defs>
<g transform="matrix(1 0 0 1 540 540)" id="b0d59701-c1c1-4b14-b990-1e12019fb9c0"  >
<rect style="stroke: none; stroke-width: 1; stroke-dasharray: none; stroke-linecap: butt; stroke-dashoffset: 0; stroke-linejoin: miter; stroke-miterlimit: 4; fill: rgb(255,255,255); fill-rule: nonzero; opacity: 1; visibility: hidden;" vector-effect="non-scaling-stroke"  x="-540" y="-540" rx="0" ry="0" width="1080" height="1080" />
</g>
<g transform="matrix(1 0 0 1 540 540)" id="b1aca3f1-547c-4332-a57f-6a4572fd7b44"  >
</g>
<g transform="matrix(0.96 0 0 0.96 540 540)"  >
<g style=""   >
		<g transform="matrix(1 0 0 1 -409.3 -252.78)" id="Layer_1"  >
<path style="stroke: none; stroke-width: 1; stroke-dasharray: none; stroke-linecap: butt; stroke-dashoffset: 0; stroke-linejoin: miter; stroke-miterlimit: 4; fill: rgb(6,141,0); fill-rule: evenodd; opacity: 1;" vector-effect="non-scaling-stroke"  transform=" translate(-153.2, -747.22)" d="M -13.07 615.14 C 20.759999999999998 702.5799999999999 141.14000000000001 893.73 319.47 859.21 C 167.35000000000002 894.39 102.49000000000004 879.47 -13.069999999999993 844.6 C -13.07 844.6 -13.07 615.14 -13.07 615.14 z" stroke-linecap="round" />
</g>
		<g transform="matrix(1 0 0 1 -409.9 -202.88)" id="Layer_1"  >
<linearGradient id="SVGID_SVGID_1__3" gradientUnits="userSpaceOnUse" gradientTransform="matrix(1 0 0 -1 0 2000)"  x1="-13.07" y1="1202.881" x2="318.26" y2="1202.881">
<stop offset="0%" style="stop-color:rgb(255,255,255);stop-opacity: 1"/>
<stop offset="84.27%" style="stop-color:rgb(255,255,255);stop-opacity: 1"/>
<stop offset="100%" style="stop-color:rgb(214,231,176);stop-opacity: 1"/>
</linearGradient>
<path style="stroke: none; stroke-width: 1; stroke-dasharray: none; stroke-linecap: butt; stroke-dashoffset: 0; stroke-linejoin: miter; stroke-miterlimit: 4; fill: url(#SVGID_SVGID_1__3); fill-rule: evenodd; opacity: 1;" vector-effect="non-scaling-stroke"  transform=" translate(-152.59, -797.12)" d="M -13.07 723.69 C 44.74 785.57 134.18 877.83 318.26 864.5600000000001 C 171.39 888.48 69.46 836.82 -13.07 779 C -13.07 779 -13.07 723.69 -13.07 723.69 z" stroke-linecap="round" />
</g>
		<g transform="matrix(1 0 0 1 -412.25 -182.27)" id="Layer_1"  >
<linearGradient id="SVGID_SVGID_00000180348124986345206540000014108307729221228200__4" gradientUnits="userSpaceOnUse" gradientTransform="matrix(0 1 1 0 170.12 1194.96)"  x1="-377.2337" y1="-183.1872" x2="-377.2337" y2="143.4528">
<stop offset="0.5618%" style="stop-color:rgb(46,150,46);stop-opacity: 1"/>
<stop offset="38.76%" style="stop-color:rgb(0,119,51);stop-opacity: 1"/>
<stop offset="100%" style="stop-color:rgb(0,30,0);stop-opacity: 1"/>
</linearGradient>
<path style="stroke: none; stroke-width: 1; stroke-dasharray: none; stroke-linecap: butt; stroke-dashoffset: 0; stroke-linejoin: miter; stroke-miterlimit: 4; fill: url(#SVGID_SVGID_00000180348124986345206540000014108307729221228200__4); fill-rule: evenodd; opacity: 1;" vector-effect="non-scaling-stroke"  transform=" translate(-150.25, -817.73)" d="M -13.07 765.32 C 27.049999999999997 801.76 135.36 883.85 313.57 861.7 C 150.23999999999998 886.3100000000001 67.03999999999999 853.38 -13.069999999999993 810.4300000000001 C -13.07 810.43 -13.07 765.32 -13.07 765.32 z" stroke-linecap="round" />
</g>
		<g transform="matrix(1 0 0 1 -409.3 -157.65)" id="Layer_1"  >
<linearGradient id="SVGID_SVGID_00000075121534314952951170000010525943486459916951__5" gradientUnits="userSpaceOnUse" gradientTransform="matrix(0 1 1 0 170.12 1194.96)"  x1="-352.6142" y1="-183.1872" x2="-352.6142" y2="149.3528">
<stop offset="0%" style="stop-color:rgb(67,163,54);stop-opacity: 1"/>
<stop offset="46.07%" style="stop-color:rgb(0,101,49);stop-opacity: 1"/>
<stop offset="100%" style="stop-color:rgb(0,64,32);stop-opacity: 1"/>
</linearGradient>
<path style="stroke: none; stroke-width: 1; stroke-dasharray: none; stroke-linecap: butt; stroke-dashoffset: 0; stroke-linejoin: miter; stroke-miterlimit: 4; fill: url(#SVGID_SVGID_00000075121534314952951170000010525943486459916951__5); fill-rule: evenodd; opacity: 1;" vector-effect="non-scaling-stroke"  transform=" translate(-153.2, -842.35)" d="M -13.07 806.11 C 24.54 837.4 148.11 890.04 319.47 859.21 C 168.96 892.8 102.63 879.34 -13.07 844.6 L -13.07 806.11 z" stroke-linecap="round" />
</g>
		<g transform="matrix(1 0 0 1 72.32 -222.23)" id="Layer_1"  >
<linearGradient id="SVGID_SVGID_00000081646727346062552110000007414673020270947997__6" gradientUnits="userSpaceOnUse" gradientTransform="matrix(0 1 1 0 170.12 1194.96)"  x1="-417.1954" y1="-31.7072" x2="-417.1954" y2="961.1128">
<stop offset="0%" style="stop-color:rgb(0,128,58);stop-opacity: 1"/>
<stop offset="25.840000000000003%" style="stop-color:rgb(0,156,66);stop-opacity: 1"/>
<stop offset="57.3%" style="stop-color:rgb(0,118,53);stop-opacity: 1"/>
<stop offset="100%" style="stop-color:rgb(0,54,24);stop-opacity: 1"/>
</linearGradient>
<path style="stroke: none; stroke-width: 1; stroke-dasharray: none; stroke-linecap: butt; stroke-dashoffset: 0; stroke-linejoin: miter; stroke-miterlimit: 4; fill: url(#SVGID_SVGID_00000081646727346062552110000007414673020270947997__6); fill-rule: evenodd; opacity: 1;" vector-effect="non-scaling-stroke"  transform=" translate(-634.82, -777.77)" d="M 1131.23 841.75 C 1080.38 749.71 1004.32 671.6 891.85 651.49 C 836.29 641.5600000000001 776.48 646.32 720.01 669.3 C 703.03 676.2099999999999 687.34 684.4499999999999 672.3 693.05 C 620.03 722.9399999999999 576.8199999999999 760.3499999999999 528 798.17 C 476.98 837.6899999999999 422.46 873.9699999999999 363 898.15 C 355.32 901.27 347.52 904.18 339.6 906.85 C 280.29 926.8000000000001 208.50000000000003 927.8100000000001 138.41000000000003 910.25 C 210.60000000000002 920.97 283.58000000000004 921.18 358.42 889.6 C 418.74 864.14 472.03000000000003 827.94 523.6600000000001 788.1800000000001 C 571.1000000000001 751.6500000000001 616.33 713.1600000000001 666.9000000000001 683.22 C 682.3400000000001 674.09 698.2700000000001 665.74 714.9200000000001 658.5 C 771.6 633.83 835.1100000000001 627.61 893.73 637.08 C 996.74 653.72 1076.28 722.7800000000001 1131.23 801.33 L 1131.23 841.75 z" stroke-linecap="round" />
</g>
		<g transform="matrix(1 0 0 1 -3.43 -280.81)" id="Layer_1"  >
<linearGradient id="SVGID_SVGID_00000062175553147512801630000002163624338802848952__7" gradientUnits="userSpaceOnUse" gradientTransform="matrix(0 1 1 0 170.12 1194.96)"  x1="-475.7747" y1="-183.1972" x2="-475.7747" y2="961.1028">
<stop offset="0%" style="stop-color:rgb(229,227,0);stop-opacity: 1"/>
<stop offset="48.309999999999995%" style="stop-color:rgb(141,194,31);stop-opacity: 1"/>
<stop offset="71%" style="stop-color:rgb(246,234,0);stop-opacity: 1"/>
<stop offset="84.27%" style="stop-color:rgb(141,194,31);stop-opacity: 1"/>
<stop offset="100%" style="stop-color:rgb(0,100,40);stop-opacity: 1"/>
</linearGradient>
<path style="stroke: none; stroke-width: 1; stroke-dasharray: none; stroke-linecap: butt; stroke-dashoffset: 0; stroke-linejoin: miter; stroke-miterlimit: 4; fill: url(#SVGID_SVGID_00000062175553147512801630000002163624338802848952__7); fill-rule: evenodd; opacity: 1;" vector-effect="non-scaling-stroke"  transform=" translate(-559.07, -719.19)" d="M -13.07 831.79 C 123.25 884.0699999999999 312.19 896.22 449.97 789.7199999999999 C 481.43 765.3999999999999 510.63 737.0999999999999 544.22 708.4699999999999 C 577.0600000000001 680.4899999999999 609.32 651.9099999999999 644.1 629.1499999999999 C 750.36 559.6399999999999 865.6700000000001 539.7299999999999 981.61 577.0299999999999 C 1036.23 594.5899999999998 1086.98 619.8799999999999 1131.22 652.9799999999999 L 1131.22 680.0299999999999 C 1093.22 643.4299999999998 1037.27 612.4899999999999 985.98 596.2199999999998 C 875.37 561.1299999999998 754.35 572.0999999999998 648.4000000000001 636.9699999999998 C 611.6000000000001 659.4999999999998 578.8700000000001 685.6199999999998 547.97 713.6299999999998 C 487.4 768.54 431.75 819.2 355.21 849.88 C 331.84999999999997 859.24 307.78 866.53 283.11 871.53 C 261.34000000000003 875.9499999999999 239.09 878.5799999999999 216.43 879.3 C 136.36 881.8199999999999 63.72 876.3499999999999 -13.079999999999984 850.29 L -13.079999999999984 831.79 L -13.07 831.79 z" stroke-linecap="round" />
</g>
		<g transform="matrix(1 0 0 1 101.45 -216.66)" id="Layer_1"  >
<linearGradient id="SVGID_SVGID_00000033356950893399862030000004457734187447932052__8" gradientUnits="userSpaceOnUse" gradientTransform="matrix(0 1 1 0 170.12 1194.96)"  x1="-411.6213" y1="26.5428" x2="-411.6213" y2="961.1128">
<stop offset="0%" style="stop-color:rgb(34,129,44);stop-opacity: 1"/>
<stop offset="24.72%" style="stop-color:rgb(129,190,37);stop-opacity: 1"/>
<stop offset="44.940000000000005%" style="stop-color:rgb(0,142,58);stop-opacity: 1"/>
<stop offset="71.35000000000001%" style="stop-color:rgb(0,152,68);stop-opacity: 1"/>
<stop offset="100%" style="stop-color:rgb(0,30,16);stop-opacity: 1"/>
</linearGradient>
<path style="stroke: none; stroke-width: 1; stroke-dasharray: none; stroke-linecap: butt; stroke-dashoffset: 0; stroke-linejoin: miter; stroke-miterlimit: 4; fill: url(#SVGID_SVGID_00000033356950893399862030000004457734187447932052__8); fill-rule: evenodd; opacity: 1;" vector-effect="non-scaling-stroke"  transform=" translate(-663.95, -783.34)" d="M 1131.23 877.82 C 1073.3600000000001 779.76 1012.69 693.6700000000001 896.19 667.6700000000001 C 822.0600000000001 651.1300000000001 740.6400000000001 664.4900000000001 663.59 712.9900000000001 C 611.39 745.8600000000001 565.01 785.0300000000001 515.3000000000001 821.0700000000002 C 417.82000000000005 891.7400000000001 318.2600000000001 934.2600000000002 196.66000000000008 920.5100000000002 C 315.3400000000001 929.9900000000002 414.43000000000006 878.9800000000002 508.8800000000001 810.1900000000003 C 558.7200000000001 773.8900000000003 604.9800000000001 732.2100000000003 657.3600000000001 699.5800000000003 C 739.3800000000001 648.4900000000002 827.4200000000001 632.6700000000003 907.5400000000002 650.8800000000002 C 1011.3700000000002 674.4900000000002 1080.6100000000001 750.2400000000002 1131.2300000000002 834.2800000000002 L 1131.2300000000002 877.82 z" stroke-linecap="round" />
</g>
		<g transform="matrix(1 0 0 1 50.48 -230.49)" id="Layer_1"  >
<linearGradient id="SVGID_SVGID_00000058574442986719255820000013247814986136079510__9" gradientUnits="userSpaceOnUse" gradientTransform="matrix(0 1 1 0 170.12 1194.96)"  x1="-425.4535" y1="-75.3872" x2="-425.4535" y2="961.1128">
<stop offset="0%" style="stop-color:rgb(0,152,68);stop-opacity: 1"/>
<stop offset="39.89%" style="stop-color:rgb(159,200,18);stop-opacity: 1"/>
<stop offset="70.22%" style="stop-color:rgb(0,155,67);stop-opacity: 1"/>
<stop offset="100%" style="stop-color:rgb(0,111,52);stop-opacity: 1"/>
</linearGradient>
<path style="stroke: none; stroke-width: 1; stroke-dasharray: none; stroke-linecap: butt; stroke-dashoffset: 0; stroke-linejoin: miter; stroke-miterlimit: 4; fill: url(#SVGID_SVGID_00000058574442986719255820000013247814986136079510__9); fill-rule: evenodd; opacity: 1;" vector-effect="non-scaling-stroke"  transform=" translate(-612.98, -769.51)" d="M 1131.23 812.52 C 1073.23 710.25 953.9300000000001 620.92 802.98 637.5699999999999 C 731.39 645.4699999999999 664.1700000000001 681.53 605.48 725.9699999999999 C 511.23 797.3299999999999 424.02 881.3999999999999 306.02000000000004 909.0799999999999 C 243.22000000000003 923.81 172.92000000000004 920.78 94.73000000000005 901.16 C 175.23000000000005 915.52 241.29000000000005 914.89 299.00000000000006 900.8199999999999 C 399.88000000000005 876.2299999999999 477.5200000000001 812.1299999999999 557.8600000000001 747.53 C 571.7600000000001 736.35 586.3500000000001 723.62 600.8000000000002 712.76 C 660.8800000000002 667.62 725.6700000000002 632.95 799.2300000000002 623.56 C 937.5000000000002 605.91 1061.5500000000002 671.2399999999999 1131.2300000000002 773.8799999999999 L 1131.2300000000002 812.52 z" stroke-linecap="round" />
</g>
		<g transform="matrix(1 0 0 1 6.75 -241.2)" id="Layer_1"  >
<linearGradient id="SVGID_SVGID_00000106841921663102478790000004800625512769150134__10" gradientUnits="userSpaceOnUse" gradientTransform="matrix(0 1 1 0 170.12 1194.96)"  x1="-436.1617" y1="-162.8472" x2="-436.1617" y2="961.1128">
<stop offset="0%" style="stop-color:rgb(255,255,255);stop-opacity: 1"/>
<stop offset="84.27%" style="stop-color:rgb(255,255,255);stop-opacity: 1"/>
<stop offset="100%" style="stop-color:rgb(214,231,176);stop-opacity: 1"/>
</linearGradient>
<path style="stroke: none; stroke-width: 1; stroke-dasharray: none; stroke-linecap: butt; stroke-dashoffset: 0; stroke-linejoin: miter; stroke-miterlimit: 4; fill: url(#SVGID_SVGID_00000106841921663102478790000004800625512769150134__10); fill-rule: evenodd; opacity: 1;" vector-effect="non-scaling-stroke"  transform=" translate(-569.25, -758.8)" d="M 1130.53 779 C 1072.57 695.05 981.06 633.99 870.52 624.64 C 818.67 620.25 767.89 626.9399999999999 719.38 645.77 C 667.86 665.77 621.93 698.76 578.59 733.12 C 575.1800000000001 735.82 571.7900000000001 738.53 568.4 741.25 C 499.47999999999996 796.51 433.55999999999995 854.48 350.18999999999994 886.12 C 320.30999999999995 897.46 289.1499999999999 906.05 256.6499999999999 910.36 C 183.44999999999993 920.0600000000001 101.97999999999993 907.8100000000001 7.269999999999925 874 C 92.72999999999992 899.07 168.26999999999992 907.71 237.23999999999992 899.73 C 276.8299999999999 895.15 314.00999999999993 884.39 349.7799999999999 869.77 C 434.1199999999999 835.29 499.56999999999994 779.48 569.6099999999999 721.38 C 614.9499999999999 683.78 660.4599999999999 651.2 715.5199999999999 630.0699999999999 C 792.4399999999998 600.54 873.2699999999999 596.0899999999999 946.3999999999999 616.8499999999999 C 1021.8199999999998 638.2599999999999 1086.0099999999998 683.8799999999999 1131.2299999999998 739.18 L 1130.53 779 z" stroke-linecap="round" />
</g>
		<g transform="matrix(1 0 0 1 -3.42 -249.79)" id="Layer_1"  >
<linearGradient id="SVGID_SVGID_00000176041015511696857190000006340960033204860039__11" gradientUnits="userSpaceOnUse" gradientTransform="matrix(0 1 1 0 170.12 1194.96)"  x1="-444.7499" y1="-183.1872" x2="-444.7499" y2="961.1128">
<stop offset="0%" style="stop-color:rgb(229,227,0);stop-opacity: 1"/>
<stop offset="18%" style="stop-color:rgb(255,255,255);stop-opacity: 1"/>
<stop offset="35.96%" style="stop-color:rgb(229,227,0);stop-opacity: 1"/>
<stop offset="70%" style="stop-color:rgb(141,194,31);stop-opacity: 1"/>
<stop offset="100%" style="stop-color:rgb(0,72,28);stop-opacity: 1"/>
</linearGradient>
<path style="stroke: none; stroke-width: 1; stroke-dasharray: none; stroke-linecap: butt; stroke-dashoffset: 0; stroke-linejoin: miter; stroke-miterlimit: 4; fill: url(#SVGID_SVGID_00000176041015511696857190000006340960033204860039__11); fill-rule: evenodd; opacity: 1;" vector-effect="non-scaling-stroke"  transform=" translate(-559.08, -750.21)" d="M 1131.23 743.39 C 1038.14 627.17 873.1 572.02 715.6500000000001 631.96 C 668.0100000000001 650.09 627.3400000000001 677.71 587.8700000000001 708.4200000000001 C 554.0600000000002 734.73 521.4000000000001 762.5000000000001 487.8200000000001 789.09 C 441.0700000000001 826.1 396.97000000000014 856.6700000000001 334.9100000000001 878.6500000000001 C 298.11000000000007 891.6800000000001 259.7900000000001 900.5100000000001 219.0800000000001 903.4900000000001 C 149.9200000000001 908.5500000000001 74.22000000000008 896.5900000000001 -13.069999999999908 868.4800000000001 L -13.069999999999908 860.3100000000002 C 70.59000000000009 885.1800000000002 143.7400000000001 896.0700000000002 210.6400000000001 892.1700000000002 C 253.7500000000001 889.6500000000002 294.23000000000013 880.9300000000002 332.9900000000001 867.8100000000002 C 390.67000000000013 848.2900000000002 435.7600000000001 819.7100000000002 481.4300000000001 784.3600000000001 C 516.1100000000001 757.5200000000001 548.9800000000001 728.4800000000001 583.5800000000002 701.5200000000001 C 623.4200000000002 670.4800000000001 665.1700000000002 642.2 712.2100000000002 623.5900000000001 C 864.5200000000002 563.3200000000002 1035.2400000000002 603.8000000000002 1131.23 718.7300000000001 L 1131.23 743.39 z" stroke-linecap="round" />
</g>
		<g transform="matrix(1 0 0 1 -3.42 -260.21)" id="Layer_1"  >
<linearGradient id="SVGID_SVGID_00000076580905840945080860000004054806362040766125__12" gradientUnits="userSpaceOnUse" gradientTransform="matrix(0 1 1 0 170.12 1194.96)"  x1="-455.1749" y1="-183.1872" x2="-455.1749" y2="961.1228">
<stop offset="0%" style="stop-color:rgb(0,161,63);stop-opacity: 1"/>
<stop offset="33.71%" style="stop-color:rgb(141,194,31);stop-opacity: 1"/>
<stop offset="55.620000000000005%" style="stop-color:rgb(246,234,0);stop-opacity: 1"/>
<stop offset="75%" style="stop-color:rgb(255,255,255);stop-opacity: 1"/>
<stop offset="89%" style="stop-color:rgb(218,223,0);stop-opacity: 1"/>
<stop offset="100%" style="stop-color:rgb(0,152,68);stop-opacity: 1"/>
</linearGradient>
<path style="stroke: none; stroke-width: 1; stroke-dasharray: none; stroke-linecap: butt; stroke-dashoffset: 0; stroke-linejoin: miter; stroke-miterlimit: 4; fill: url(#SVGID_SVGID_00000076580905840945080860000004054806362040766125__12); fill-rule: evenodd; opacity: 1;" vector-effect="non-scaling-stroke"  transform=" translate(-559.08, -739.79)" d="M -13.07 851.65 C 63.38999999999999 876.25 136.69 889.68 211.74 884.9 C 255.21 882.14 299.28000000000003 873.26 344.88 856.91 C 392.90999999999997 839.6899999999999 423.82 820.88 459.07 793.43 C 503.75 758.64 544.85 719.8699999999999 589.17 684.74 C 636.3399999999999 647.36 688.5899999999999 616.74 745.76 600.53 C 818.03 580.03 884.37 580.13 945.12 595.1899999999999 C 1011.85 611.7199999999999 1071.85 646.29 1125.57 691.4 C 1127.46 693.29 1129.35 695.15 1131.24 697 L 1131.24 719.09 C 1036.34 623.5400000000001 900.58 570.1800000000001 748.74 612.72 C 693.15 628.2900000000001 642.06 657.63 595.83 693.49 C 550.24 728.86 507.56000000000006 767.46 461.30000000000007 802.12 C 426.3500000000001 828.32 394.2800000000001 847.3 348.11000000000007 864.56 C 305.32000000000005 880.56 260.45000000000005 891.31 212.25000000000006 894.27 C 144.85000000000005 898.41 71.05000000000007 887.37 -13.049999999999955 862.21 L -13.049999999999955 851.6500000000001 L -13.07 851.6500000000001 z" stroke-linecap="round" />
</g>
		<g transform="matrix(1 0 0 1 -3.42 -269.54)" id="Layer_1"  >
<linearGradient id="SVGID_SVGID_00000122680911584966667400000005781508158514352555__13" gradientUnits="userSpaceOnUse" gradientTransform="matrix(0 1 1 0 170.12 1194.96)"  x1="-464.496" y1="-183.1872" x2="-464.496" y2="961.1128">
<stop offset="0%" style="stop-color:rgb(255,255,255);stop-opacity: 1"/>
<stop offset="84.27%" style="stop-color:rgb(255,255,255);stop-opacity: 1"/>
<stop offset="100%" style="stop-color:rgb(214,231,176);stop-opacity: 1"/>
</linearGradient>
<path style="stroke: none; stroke-width: 1; stroke-dasharray: none; stroke-linecap: butt; stroke-dashoffset: 0; stroke-linejoin: miter; stroke-miterlimit: 4; fill: url(#SVGID_SVGID_00000122680911584966667400000005781508158514352555__13); fill-rule: evenodd; opacity: 1;" vector-effect="non-scaling-stroke"  transform=" translate(-559.08, -730.46)" d="M -13.07 849.4 C 74.63999999999999 880.18 177.17000000000002 889.6 280.18 869.37 C 284.69 868.48 289.19 867.54 293.7 866.51 C 343.41999999999996 855.26 393.40999999999997 835.43 436.4 805.55 C 446.23999999999995 798.7099999999999 455.91999999999996 791.3 465.84999999999997 783.17 C 518.8299999999999 739.8199999999999 567.22 690.39 623.97 651.6899999999999 C 698.01 601.1999999999999 781.24 569.67 869.54 571.9799999999999 C 958.91 574.3199999999999 1046.7 610.06 1131.23 673.3299999999999 L 1131.23 700.6999999999999 C 1063.43 631.4999999999999 965.1800000000001 588.6399999999999 861.62 586.6399999999999 C 777.83 585.0199999999999 699.71 612.1499999999999 628.9300000000001 658.4599999999998 C 571.6400000000001 695.9499999999998 522.58 744.5999999999998 469.0300000000001 786.9399999999998 C 458.11000000000007 795.5799999999998 447.6000000000001 803.5599999999998 436.9500000000001 810.9899999999998 C 393.4500000000001 841.3699999999998 344.73000000000013 861.9799999999998 294.4900000000001 874.3699999999998 C 187.91000000000014 900.6599999999997 83.44000000000011 889.4399999999998 -13.06999999999988 858.4699999999998 C -13.07 858.47 -13.07 849.4 -13.07 849.4 z" stroke-linecap="round" />
</g>
		<g transform="matrix(1 0 0 1 1.17 -316.83)" id="Layer_1"  >
<path style="stroke: rgb(0,146,69); stroke-width: 2; stroke-dasharray: none; stroke-linecap: butt; stroke-dashoffset: 0; stroke-linejoin: miter; stroke-miterlimit: 10; fill: none; fill-rule: nonzero; opacity: 0.6;" vector-effect="non-scaling-stroke"  transform=" translate(-563.67, -683.17)" d="M -13.66 622.1 C -4.6 659.72 148.04 868.73 357.56 813.1700000000001 C 448.35 786.0600000000001 527.08 726.57 594.41 662.45 C 860.8699999999999 433.76000000000005 1071.78 594.52 1141 660.21" stroke-linecap="round" />
</g>
		<g transform="matrix(1 0 0 1 0.8 -321.57)" id="Layer_1"  >
<path style="stroke: rgb(0,146,69); stroke-width: 2; stroke-dasharray: none; stroke-linecap: butt; stroke-dashoffset: 0; stroke-linejoin: miter; stroke-miterlimit: 10; fill: none; fill-rule: nonzero; opacity: 0.6;" vector-effect="non-scaling-stroke"  transform=" translate(-563.3, -678.43)" d="M -14.06 619.54 C -4.860000000000001 657.12 148.56 865.55 357.86 809.23 C 450.65000000000003 781.07 524.9300000000001 724.19 594.12 657.6600000000001 C 859.7 428.0000000000001 1071.2 587.98 1140.6599999999999 653.4100000000001" stroke-linecap="round" />
</g>
		<g transform="matrix(1 0 0 1 0.44 -326.31)" id="Layer_1"  >
<path style="stroke: rgb(0,146,69); stroke-width: 2; stroke-dasharray: none; stroke-linecap: butt; stroke-dashoffset: 0; stroke-linejoin: miter; stroke-miterlimit: 10; fill: none; fill-rule: nonzero; opacity: 0.6;" vector-effect="non-scaling-stroke"  transform=" translate(-562.94, -673.69)" d="M -14.45 616.98 C -5.1 654.53 149.09 862.38 358.16 805.3 C 452.94000000000005 776.0799999999999 522.79 721.8199999999999 593.83 652.8699999999999 C 858.52 422.2499999999999 1070.6100000000001 581.4399999999998 1140.3200000000002 646.6099999999999" stroke-linecap="round" />
</g>
		<g transform="matrix(1 0 0 1 0.07 -331.07)" id="Layer_1"  >
<path style="stroke: rgb(0,146,69); stroke-width: 2; stroke-dasharray: none; stroke-linecap: butt; stroke-dashoffset: 0; stroke-linejoin: miter; stroke-miterlimit: 10; fill: none; fill-rule: nonzero; opacity: 0.6;" vector-effect="non-scaling-stroke"  transform=" translate(-562.57, -668.93)" d="M -14.84 614.41 C -5.35 651.92 149.63 859.1999999999999 358.47 801.3499999999999 C 455.25 771.0799999999999 520.6500000000001 719.43 593.5500000000001 648.06 C 857.3500000000001 416.4799999999999 1070.04 574.89 1139.98 639.79" stroke-linecap="round" />
</g>
		<g transform="matrix(1 0 0 1 -0.3 -335.82)" id="Layer_1"  >
<path style="stroke: rgb(0,146,69); stroke-width: 2; stroke-dasharray: none; stroke-linecap: butt; stroke-dashoffset: 0; stroke-linejoin: miter; stroke-miterlimit: 10; fill: none; fill-rule: nonzero; opacity: 0.6;" vector-effect="non-scaling-stroke"  transform=" translate(-562.2, -664.18)" d="M -15.24 611.85 C -5.609999999999999 649.32 150.14999999999998 856.02 358.77 797.4100000000001 C 457.54999999999995 766.08 518.5 717.0600000000001 593.26 643.2600000000001 C 856.1700000000001 410.72000000000014 1069.45 568.3400000000001 1139.6399999999999 632.9800000000001" stroke-linecap="round" />
</g>
		<g transform="matrix(1 0 0 1 -0.66 -340.57)" id="Layer_1"  >
<path style="stroke: rgb(0,146,69); stroke-width: 2; stroke-dasharray: none; stroke-linecap: butt; stroke-dashoffset: 0; stroke-linejoin: miter; stroke-miterlimit: 10; fill: none; fill-rule: nonzero; opacity: 0.6;" vector-effect="non-scaling-stroke"  transform=" translate(-561.84, -659.43)" d="M -15.63 609.29 C -5.860000000000001 646.73 150.68 852.8499999999999 359.07 793.47 C 459.84 761.09 516.35 714.6800000000001 592.97 638.46 C 855 404.96000000000004 1068.87 561.7900000000001 1139.3000000000002 626.1800000000001" stroke-linecap="round" />
</g>
		<g transform="matrix(1 0 0 1 -1.03 -345.32)" id="Layer_1"  >
<path style="stroke: rgb(0,146,69); stroke-width: 2; stroke-dasharray: none; stroke-linecap: butt; stroke-dashoffset: 0; stroke-linejoin: miter; stroke-miterlimit: 10; fill: none; fill-rule: nonzero; opacity: 0.6;" vector-effect="non-scaling-stroke"  transform=" translate(-561.47, -654.68)" d="M -16.03 606.73 C -6.120000000000001 644.13 151.2 849.6800000000001 359.37 789.53 C 462.14 756.0899999999999 514.2 712.3 592.69 633.66 C 853.83 399.19999999999993 1068.29 555.24 1138.97 619.37" stroke-linecap="round" />
</g>
		<g transform="matrix(1 0 0 1 -1.39 -350.08)" id="Layer_1"  >
<path style="stroke: rgb(0,146,69); stroke-width: 2; stroke-dasharray: none; stroke-linecap: butt; stroke-dashoffset: 0; stroke-linejoin: miter; stroke-miterlimit: 10; fill: none; fill-rule: nonzero; opacity: 0.6;" vector-effect="non-scaling-stroke"  transform=" translate(-561.11, -649.92)" d="M -16.42 604.17 C -6.360000000000001 641.53 151.74 846.5 359.66999999999996 785.5899999999999 C 464.43999999999994 751.0999999999999 512.06 709.92 592.4 628.8599999999999 C 852.65 393.43999999999994 1067.71 548.6899999999999 1138.63 612.56" stroke-linecap="round" />
</g>
		<g transform="matrix(1 0 0 1 -1.77 -354.83)" id="Layer_1"  >
<path style="stroke: rgb(0,146,69); stroke-width: 2; stroke-dasharray: none; stroke-linecap: butt; stroke-dashoffset: 0; stroke-linejoin: miter; stroke-miterlimit: 10; fill: none; fill-rule: nonzero; opacity: 0.6;" vector-effect="non-scaling-stroke"  transform=" translate(-560.73, -645.17)" d="M -16.82 601.61 C -6.620000000000001 638.94 152.26000000000002 843.33 359.97 781.65 C 466.73 746.1 509.91 707.54 592.11 624.06 C 851.47 387.66999999999996 1067.12 542.14 1138.29 605.75" stroke-linecap="round" />
</g>
		<g transform="matrix(1 0 0 1 -2.13 -359.59)" id="Layer_1"  >
<path style="stroke: rgb(0,146,69); stroke-width: 2; stroke-dasharray: none; stroke-linecap: butt; stroke-dashoffset: 0; stroke-linejoin: miter; stroke-miterlimit: 10; fill: none; fill-rule: nonzero; opacity: 0.6;" vector-effect="non-scaling-stroke"  transform=" translate(-560.38, -640.41)" d="M -17.21 599.04 C -6.870000000000001 636.3299999999999 152.79 840.15 360.28000000000003 777.6999999999999 C 469.04 741.0999999999999 507.77000000000004 705.15 591.83 619.26 C 850.3100000000001 381.90999999999997 1066.5500000000002 535.59 1137.96 598.9399999999999" stroke-linecap="round" />
</g>
		<g transform="matrix(1 0 0 1 -2.5 -364.34)" id="Layer_1"  >
<path style="stroke: rgb(0,146,69); stroke-width: 2; stroke-dasharray: none; stroke-linecap: butt; stroke-dashoffset: 0; stroke-linejoin: miter; stroke-miterlimit: 10; fill: none; fill-rule: nonzero; opacity: 0.6;" vector-effect="non-scaling-stroke"  transform=" translate(-560, -635.66)" d="M -17.61 596.48 C -7.129999999999999 633.74 153.31 836.98 360.57 773.76 C 471.33 736.1 505.61 702.77 591.53 614.46 C 849.1199999999999 376.15000000000003 1065.96 529.0400000000001 1137.6100000000001 592.13" stroke-linecap="round" />
</g>
		<g transform="matrix(1 0 0 1 -2.86 -369.09)" id="Layer_1"  >
<path style="stroke: rgb(0,146,69); stroke-width: 2; stroke-dasharray: none; stroke-linecap: butt; stroke-dashoffset: 0; stroke-linejoin: miter; stroke-miterlimit: 10; fill: none; fill-rule: nonzero; opacity: 0.6;" vector-effect="non-scaling-stroke"  transform=" translate(-559.64, -630.91)" d="M -18 593.92 C -7.380000000000001 631.14 153.85 833.8 360.88 769.8299999999999 C 473.63 731.1199999999999 503.47 700.41 591.25 609.67 C 847.95 370.4 1065.38 522.5 1137.28 585.3299999999999" stroke-linecap="round" />
</g>
		<g transform="matrix(1 0 0 1 -5.64 -211.15)" id="Layer_1"  >
<path style="stroke: rgb(0,109,0); stroke-width: 0.25; stroke-dasharray: none; stroke-linecap: butt; stroke-dashoffset: 0; stroke-linejoin: miter; stroke-miterlimit: 10; fill: none; fill-rule: nonzero; opacity: 1;" vector-effect="non-scaling-stroke"  transform=" translate(-556.86, -788.85)" d="M -17.06 865.09 C 2.59 867.25 225.42 1033.18 525.44 805.77 C 613.85 752.37 784.99 533.16 1045.31 737.97 C 1045.31 737.97 1120.73 814.24 1130.77 858.03" stroke-linecap="round" />
</g>
		<g transform="matrix(1 0 0 1 -5.64 -208.46)" id="Layer_1"  >
<path style="stroke: rgb(0,112,6); stroke-width: 0.3182; stroke-dasharray: none; stroke-linecap: butt; stroke-dashoffset: 0; stroke-linejoin: miter; stroke-miterlimit: 10; fill: none; fill-rule: nonzero; opacity: 1;" vector-effect="non-scaling-stroke"  transform=" translate(-556.86, -791.54)" d="M -17.06 867.78 C 2.59 869.9399999999999 225.42 1035.87 525.44 808.4599999999999 C 613.85 755.06 784.99 535.8499999999999 1045.31 740.66 C 1045.31 740.66 1120.73 816.93 1130.77 860.72" stroke-linecap="round" />
</g>
		<g transform="matrix(1 0 0 1 -5.64 -205.76)" id="Layer_1"  >
<path style="stroke: rgb(0,116,13); stroke-width: 0.3864; stroke-dasharray: none; stroke-linecap: butt; stroke-dashoffset: 0; stroke-linejoin: miter; stroke-miterlimit: 10; fill: none; fill-rule: nonzero; opacity: 1;" vector-effect="non-scaling-stroke"  transform=" translate(-556.86, -794.24)" d="M -17.06 870.48 C 2.59 872.64 225.42 1038.57 525.44 811.16 C 613.85 757.76 784.99 538.55 1045.31 743.36 C 1045.31 743.36 1120.73 819.63 1130.77 863.4200000000001" stroke-linecap="round" />
</g>
		<g transform="matrix(1 0 0 1 -5.64 -203.07)" id="Layer_1"  >
<path style="stroke: rgb(0,119,19); stroke-width: 0.4545; stroke-dasharray: none; stroke-linecap: butt; stroke-dashoffset: 0; stroke-linejoin: miter; stroke-miterlimit: 10; fill: none; fill-rule: nonzero; opacity: 1;" vector-effect="non-scaling-stroke"  transform=" translate(-556.86, -796.93)" d="M -17.06 873.17 C 2.59 875.3299999999999 225.42 1041.26 525.44 813.8499999999999 C 613.85 760.4499999999999 784.99 541.2399999999999 1045.31 746.05 C 1045.31 746.05 1120.73 822.3199999999999 1130.77 866.1099999999999" stroke-linecap="round" />
</g>
		<g transform="matrix(1 0 0 1 -5.64 -200.37)" id="Layer_1"  >
<path style="stroke: rgb(0,122,25); stroke-width: 0.5227; stroke-dasharray: none; stroke-linecap: butt; stroke-dashoffset: 0; stroke-linejoin: miter; stroke-miterlimit: 10; fill: none; fill-rule: nonzero; opacity: 1;" vector-effect="non-scaling-stroke"  transform=" translate(-556.86, -799.63)" d="M -17.06 875.87 C 2.59 878.03 225.42 1043.96 525.44 816.55 C 613.85 763.15 784.99 543.9399999999999 1045.31 748.75 C 1045.31 748.75 1120.73 825.02 1130.77 868.81" stroke-linecap="round" />
</g>
		<g transform="matrix(1 0 0 1 -5.64 -197.67)" id="Layer_1"  >
<path style="stroke: rgb(0,126,31); stroke-width: 0.5909; stroke-dasharray: none; stroke-linecap: butt; stroke-dashoffset: 0; stroke-linejoin: miter; stroke-miterlimit: 10; fill: none; fill-rule: nonzero; opacity: 1;" vector-effect="non-scaling-stroke"  transform=" translate(-556.86, -802.33)" d="M -17.06 878.57 C 2.59 880.73 225.42 1046.66 525.44 819.25 C 613.85 765.85 784.99 546.64 1045.31 751.45 C 1045.31 751.45 1120.73 827.72 1130.77 871.51" stroke-linecap="round" />
</g>
		<g transform="matrix(1 0 0 1 -5.64 -194.99)" id="Layer_1"  >
<path style="stroke: rgb(0,129,38); stroke-width: 0.6591; stroke-dasharray: none; stroke-linecap: butt; stroke-dashoffset: 0; stroke-linejoin: miter; stroke-miterlimit: 10; fill: none; fill-rule: nonzero; opacity: 1;" vector-effect="non-scaling-stroke"  transform=" translate(-556.86, -805.01)" d="M -17.06 881.26 C 2.59 883.42 225.42 1049.35 525.44 821.93 C 613.85 768.53 784.99 549.3199999999999 1045.31 754.13 C 1045.31 754.13 1120.73 830.4 1130.77 874.19" stroke-linecap="round" />
</g>
		<g transform="matrix(1 0 0 1 -5.64 -192.28)" id="Layer_1"  >
<path style="stroke: rgb(0,133,44); stroke-width: 0.7273; stroke-dasharray: none; stroke-linecap: butt; stroke-dashoffset: 0; stroke-linejoin: miter; stroke-miterlimit: 10; fill: none; fill-rule: nonzero; opacity: 1;" vector-effect="non-scaling-stroke"  transform=" translate(-556.86, -807.72)" d="M -17.06 883.96 C 2.59 886.12 225.42 1052.05 525.44 824.64 C 613.85 771.24 784.99 552.03 1045.31 756.84 C 1045.31 756.84 1120.73 833.11 1130.77 876.9000000000001" stroke-linecap="round" />
</g>
		<g transform="matrix(1 0 0 1 -5.64 -189.58)" id="Layer_1"  >
<path style="stroke: rgb(0,136,50); stroke-width: 0.7955; stroke-dasharray: none; stroke-linecap: butt; stroke-dashoffset: 0; stroke-linejoin: miter; stroke-miterlimit: 10; fill: none; fill-rule: nonzero; opacity: 1;" vector-effect="non-scaling-stroke"  transform=" translate(-556.86, -810.42)" d="M -17.06 886.66 C 2.59 888.8199999999999 225.42 1054.75 525.44 827.3399999999999 C 613.85 773.9399999999999 784.99 554.7299999999999 1045.31 759.54 C 1045.31 759.54 1120.73 835.81 1130.77 879.5999999999999" stroke-linecap="round" />
</g>
		<g transform="matrix(1 0 0 1 -5.64 -186.89)" id="Layer_1"  >
<path style="stroke: rgb(0,139,56); stroke-width: 0.8636; stroke-dasharray: none; stroke-linecap: butt; stroke-dashoffset: 0; stroke-linejoin: miter; stroke-miterlimit: 10; fill: none; fill-rule: nonzero; opacity: 1;" vector-effect="non-scaling-stroke"  transform=" translate(-556.86, -813.11)" d="M -17.06 889.35 C 2.59 891.51 225.42 1057.44 525.44 830.03 C 613.85 776.63 784.99 557.42 1045.31 762.23 C 1045.31 762.23 1120.73 838.5 1130.77 882.29" stroke-linecap="round" />
</g>
		<g transform="matrix(1 0 0 1 -5.64 -184.19)" id="Layer_1"  >
<path style="stroke: rgb(0,143,63); stroke-width: 0.9318; stroke-dasharray: none; stroke-linecap: butt; stroke-dashoffset: 0; stroke-linejoin: miter; stroke-miterlimit: 10; fill: none; fill-rule: nonzero; opacity: 1;" vector-effect="non-scaling-stroke"  transform=" translate(-556.86, -815.81)" d="M -17.06 892.05 C 2.59 894.2099999999999 225.42 1060.1399999999999 525.44 832.7299999999999 C 613.85 779.3299999999999 784.99 560.1199999999999 1045.31 764.93 C 1045.31 764.93 1120.73 841.1999999999999 1130.77 884.99" stroke-linecap="round" />
</g>
		<g transform="matrix(1 0 0 1 -5.64 -181.49)" id="Layer_1"  >
<path style="stroke: rgb(0,146,69); stroke-width: 1; stroke-dasharray: none; stroke-linecap: butt; stroke-dashoffset: 0; stroke-linejoin: miter; stroke-miterlimit: 10; fill: none; fill-rule: nonzero; opacity: 1;" vector-effect="non-scaling-stroke"  transform=" translate(-556.86, -818.51)" d="M -17.06 894.75 C 2.59 896.91 225.42 1062.84 525.44 835.43 C 613.85 782.03 784.99 562.8199999999999 1045.31 767.63 C 1045.31 767.63 1120.73 843.9 1130.77 887.69" stroke-linecap="round" />
</g>
</g>
</g>
</svg>