<?xml version="1.0" encoding="UTF-8" standalone="no" ?>
<!DOCTYPE svg PUBLIC "-//W3C//DTD SVG 1.1//EN" "http://www.w3.org/Graphics/SVG/1.1/DTD/svg11.dtd">
<svg xmlns="http://www.w3.org/2000/svg" xmlns:xlink="http://www.w3.org/1999/xlink" version="1.1" width="378" height="129" viewBox="0 0 378 129" xml:space="preserve">
<desc>Created with Fabric.js 3.6.3</desc>
<defs>
</defs>
<g transform="matrix(1 0 0 1 189.44 64.76)"  >
<g style=""   >
		<g transform="matrix(1 0 0 1 -51.53 -55.28)" id="Layer_1-2"  >
<path style="stroke: none; stroke-width: 1; stroke-dasharray: none; stroke-linecap: butt; stroke-dashoffset: 0; stroke-linejoin: miter; stroke-miterlimit: 4; fill: rgb(164,205,57); fill-rule: nonzero; opacity: 1;"  transform=" translate(-137.91, -9.48)" d="M 142.57 0.56 a 3 3 0 0 0 0.8 0.2 a 27.66 27.66 0 0 1 8 1.29 a 51.54 51.54 0 0 1 8.72 2.73 a 34.57 34.57 0 0 0 -7.36 4.66 a 58 58 0 0 0 -8.06 8.07 c -0.22 0.28 -0.48 0.52 -0.73 0.78 a 11.21 11.21 0 0 0 -1.63 0.33 c -0.4 0.06 -0.84 0.21 -1.18 0 c -1.43 -0.81 -3.18 -0.86 -4.47 -2 a 2.22 2.22 0 0 0 -2 -0.4 c -2.17 0.41 -2.94 -0.07 -3.53 -2.11 a 5.6 5.6 0 0 0 -1.95 -2.66 c -1 -0.86 -2.09 -1.61 -3.15 -2.38 a 1.7 1.7 0 0 0 -2.39 0 a 1.93 1.93 0 0 1 -2.22 0.3 c -1 -0.37 -1.9 -1 -2.88 -1.42 a 8.78 8.78 0 0 0 -2.21 -0.82 a 0.65 0.65 0 0 1 -0.6 -0.5 a 0.49 0.49 0 0 1 0.36 -0.56 c 0.83 -0.08 -0.17 -0.43 0.1 -0.57 a 11.29 11.29 0 0 1 3.48 -1.92 A 45.37 45.37 0 0 1 128.19 0.87 a 22.94 22.94 0 0 1 3.53 -0.33 c 1.68 0 3.35 -0.15 5 -0.26 a 0.37 0.37 0 0 1 0.38 0 a 4.39 4.39 0 0 0 3 0 A 22.2 22.2 0 0 1 142.57 0.56 Z" stroke-linecap="round" />
</g>
		<g transform="matrix(1 0 0 1 -110.24 41.19)" id="Layer_1-2"  >
<path style="stroke: none; stroke-width: 1; stroke-dasharray: none; stroke-linecap: butt; stroke-dashoffset: 0; stroke-linejoin: miter; stroke-miterlimit: 4; fill: rgb(77,158,69); fill-rule: nonzero; opacity: 1;"  transform=" translate(-79.2, -105.95)" d="M 94.66 108.38 a 36.13 36.13 0 0 1 -6 8.15 c -4.21 2.88 -8.83 2.56 -12.73 -0.77 a 26.94 26.94 0 0 1 -5.76 -7.39 c -0.49 -0.92 -0.94 -1.87 -1.44 -2.78 c -0.65 -1.49 -1.49 -2.89 -2.18 -4.36 a 1.74 1.74 0 0 0 -0.32 -0.87 a 2.4 2.4 0 0 1 -0.16 -0.27 a 17.12 17.12 0 0 0 -0.94 -2.2 a 5.12 5.12 0 0 1 -0.25 -0.93 a 1.36 1.36 0 0 0 -0.36 -0.95 a 1.26 1.26 0 0 1 -0.34 -0.68 a 3.47 3.47 0 0 1 0 -0.72 c 0 -0.33 -0.18 0.06 -0.23 -0.07 a 0.61 0.61 0 0 1 -0.21 -0.24 a 0.89 0.89 0 0 1 0 -0.51 c 0.12 -0.31 0.38 -0.52 0.64 -0.3 c 1.28 1.11 2.91 1.45 4.42 2 c 2.54 0.89 4.8 2.33 7.22 3.42 c 2.86 1.3 5.63 2.81 8.53 4 s 5.26 2.81 8.11 3.72 c 0.5 0.16 0.92 0.48 1.39 0.68 A 0.88 0.88 0 0 1 94.66 108.38 Z" stroke-linecap="round" />
</g>
		<g transform="matrix(1 0 0 1 -94.53 -1.04)" id="Layer_1-2"  >
<path style="stroke: none; stroke-width: 1; stroke-dasharray: none; stroke-linecap: butt; stroke-dashoffset: 0; stroke-linejoin: miter; stroke-miterlimit: 4; fill: rgb(110,190,69); fill-rule: nonzero; opacity: 1;"  transform=" translate(-94.91, -63.72)" d="M 113.82 70.76 c -0.62 1.21 -0.89 2.6 -1.86 3.62 c -0.54 0.1 0 0.57 -0.26 0.77 a 0.12 0.12 0 0 1 0 0.16 c -0.94 -0.06 -1.45 -0.89 -2.25 -1.24 c -4.22 -1.89 -8.45 -3.78 -12.58 -5.84 c -3.21 -1.6 -6.63 -2.7 -9.73 -4.53 a 32 32 0 0 0 -4.56 -2.1 c -1.13 -0.44 -2 -1.38 -3.25 -1.64 c -0.77 -0.15 -0.82 -0.92 -0.31 -1.65 a 4.76 4.76 0 0 1 0.87 -0.81 c 0.3 -0.27 0.53 -0.6 0.65 -0.67 c -0.39 0.32 -0.92 0.87 -1.54 1.32 A 4.72 4.72 0 0 1 76 58.8 l 1.91 -3.59 a 2.48 2.48 0 0 0 1 -1.3 a 0.5 0.5 0 0 1 0.52 -0.4 c 0.23 0 0.31 0.22 0.4 0.4 a 1.59 1.59 0 0 0 2.39 0.49 a 18.85 18.85 0 0 0 2 -1.72 a 1.87 1.87 0 0 1 0.9 -0.55 a 0.68 0.68 0 0 1 0.51 0.16 a 0.47 0.47 0 0 1 0 0.35 A 10.78 10.78 0 0 1 83.49 55 c -0.53 0.48 -0.48 0.85 0.19 1.17 c 0.86 0.41 1.76 0.74 2.63 1.11 c 2.31 1 4.44 2.27 6.79 3.18 c 1.94 0.76 3.83 1.72 5.75 2.56 a 57.15 57.15 0 0 0 5.52 2.5 a 18.47 18.47 0 0 1 2.75 1.36 a 46.48 46.48 0 0 1 4.58 2.28 a 1.38 1.38 0 0 0 0.89 0.29 C 113.56 69.39 113.88 69.89 113.82 70.76 Z" stroke-linecap="round" />
</g>
		<g transform="matrix(1 0 0 1 -76 -35.19)" id="Layer_1-2"  >
<path style="stroke: none; stroke-width: 1; stroke-dasharray: none; stroke-linecap: butt; stroke-dashoffset: 0; stroke-linejoin: miter; stroke-miterlimit: 4; fill: rgb(143,199,63); fill-rule: nonzero; opacity: 1;"  transform=" translate(-113.44, -29.57)" d="M 96.35 23.86 a 41.14 41.14 0 0 1 4.31 -5.29 c 0.39 0.57 1.3 0 1.61 0.75 c 0.23 1.05 1.16 1.46 1.9 2 a 19.85 19.85 0 0 1 1.75 1.43 a 5.61 5.61 0 0 0 2.83 1.59 A 11.9 11.9 0 0 0 112 25 c 0.52 0 0.83 0.42 1.12 0.8 a 7 7 0 0 1 1.1 1.82 A 4.62 4.62 0 0 0 117 30.38 a 47.23 47.23 0 0 1 6.27 2.77 a 49.5 49.5 0 0 0 5 2.4 c 1.27 0.45 2.16 1 2.26 2.4 a 5.45 5.45 0 0 1 -1 1.9 c -0.25 0 -0.55 -0.41 -0.72 0.12 c -0.26 0.78 -0.71 0.72 -1.24 0.26 a 9.14 9.14 0 0 0 -4.31 -1.89 c -1.16 -0.23 -1.93 -1.27 -3.14 -1.24 A 0.22 0.22 0 0 1 120 37 c -0.24 -1.5 -1.44 -1 -2.34 -1.14 a 1.14 1.14 0 0 1 -0.85 -0.52 c -0.16 -0.34 -0.34 -0.65 -0.77 -0.71 a 4.78 4.78 0 0 1 -1.28 -0.81 c -0.28 -0.17 -0.59 -0.38 -0.89 -0.27 c -1.73 0.64 -3.15 -0.3 -4.48 -1.06 c -1.11 -0.64 -2.22 -1.34 -3.3 -2.06 a 3.47 3.47 0 0 0 -1.49 -0.73 a 1.87 1.87 0 0 1 -1.3 -0.74 a 1.27 1.27 0 0 0 -0.67 -0.48 c -1.72 -0.38 -3.15 -1.58 -5 -1.72 a 0.87 0.87 0 0 1 -0.91 -0.78 C 96.71 25.23 96.27 24.6 96.35 23.86 Z" stroke-linecap="round" />
</g>
		<g transform="matrix(1 0 0 1 -108.39 27.82)" id="Layer_1-2"  >
<path style="stroke: none; stroke-width: 1; stroke-dasharray: none; stroke-linecap: butt; stroke-dashoffset: 0; stroke-linejoin: miter; stroke-miterlimit: 4; fill: rgb(86,167,70); fill-rule: nonzero; opacity: 1;"  transform=" translate(-81.05, -92.58)" d="M 62.09 86.34 a 23.46 23.46 0 0 1 2.12 -3.83 a 2.69 2.69 0 0 1 3 -0.43 c 0.82 0.44 1.56 1.19 2.64 0.8 c 0.25 -0.08 0.45 0.13 0.59 0.34 a 5.34 5.34 0 0 0 2.85 1.83 c 1 0.39 1.83 1.19 2.93 1.47 A 14.54 14.54 0 0 1 77.8 87 a 30.81 30.81 0 0 1 3.77 1.64 A 45.08 45.08 0 0 0 87 91.54 c 2.17 0.9 4.25 2 6.4 2.91 a 17.44 17.44 0 0 1 4.75 2.41 c 0.48 0.42 1.22 0 1.54 0.65 s 0.5 1.18 0 1.78 a 11.83 11.83 0 0 1 -2.16 4.07 c -0.08 0 -0.21 0 -0.21 0 c 0.37 -2.07 -1.51 -2.36 -2.61 -2.71 A 37.56 37.56 0 0 1 86 96.5 a 1.62 1.62 0 0 0 -1 -0.34 a 3.84 3.84 0 0 1 -2.72 -1 c -2.93 -1.89 -6.3 -2.87 -9.35 -4.51 c -2 -1.11 -4.33 -1.78 -6.26 -3.13 a 1.39 1.39 0 0 0 -0.79 -0.22 a 1.53 1.53 0 0 1 -1.44 -0.89 c -0.38 -0.77 -0.9 -0.81 -1.51 -0.22 C 62.65 86.43 62.46 86.92 62.09 86.34 Z" stroke-linecap="round" />
</g>
		<g transform="matrix(1 0 0 1 -84.22 -20.22)" id="Layer_1-2"  >
<path style="stroke: none; stroke-width: 1; stroke-dasharray: none; stroke-linecap: butt; stroke-dashoffset: 0; stroke-linejoin: miter; stroke-miterlimit: 4; fill: rgb(131,195,65); fill-rule: nonzero; opacity: 1;"  transform=" translate(-105.22, -44.54)" d="M 123.5 50.93 a 16 16 0 0 1 -2.17 4.29 c -0.08 0.06 -0.19 0.08 -0.21 0 c -0.57 -1.39 -1.9 -1.71 -3.1 -2.19 c -4 -1.59 -7.71 -3.61 -11.61 -5.33 c -3 -1.31 -6 -2.55 -8.88 -4 c -1.28 -0.66 -1.35 -1 -0.27 -2 c 0.33 -0.29 0.69 -0.54 1 -0.82 a 4.87 4.87 0 0 0 0.89 -0.82 a 30.35 30.35 0 0 1 -3 2.08 a 1.27 1.27 0 0 1 -1.36 0.1 a 24.25 24.25 0 0 1 -4.78 -2.17 a 12.08 12.08 0 0 0 -1.65 -0.66 c -0.52 -0.27 -1 -0.61 -0.81 -1.13 c 0.15 -0.1 -0.55 -0.07 -0.62 -0.12 a 36.75 36.75 0 0 1 2.6 -4.35 a 3.29 3.29 0 0 1 1.61 0.75 c 1.18 1.16 2.83 1.41 4.2 2.19 a 23.44 23.44 0 0 1 2.11 1.1 a 3 3 0 0 0 3.66 -0.2 c 1.08 -0.76 2.22 -1.42 3.25 -2.24 a 2.28 2.28 0 0 1 0.38 -0.3 a 6.68 6.68 0 0 0 1 -0.71 a 0.76 0.76 0 0 1 0.63 -0.17 a 0.46 0.46 0 0 1 0.26 0.58 a 1.12 1.12 0 0 1 -0.32 0.42 c -1.45 1.26 -3.05 2.33 -4.53 3.54 c -0.84 0.7 -0.78 1 0.26 1.33 a 34 34 0 0 1 4.14 1.82 c 2.55 1.21 5.15 2.32 7.73 3.47 c 1.52 0.68 2.94 1.58 4.5 2.19 s 2.76 1.32 4.21 1.82 C 123.42 49.65 123.27 50.41 123.5 50.93 Z" stroke-linecap="round" />
</g>
		<g transform="matrix(1 0 0 1 -106.36 23.6)" id="Layer_1-2"  >
<path style="stroke: none; stroke-width: 1; stroke-dasharray: none; stroke-linecap: butt; stroke-dashoffset: 0; stroke-linejoin: miter; stroke-miterlimit: 4; fill: rgb(89,171,70); fill-rule: nonzero; opacity: 1;"  transform=" translate(-83.08, -88.36)" d="M 99.72 99.29 c -0.31 -0.33 0.35 -0.67 -0.1 -1.14 a 5.48 5.48 0 0 0 -0.87 -0.78 a 37.31 37.31 0 0 0 -5 -2.39 a 54.77 54.77 0 0 0 -5.34 -2.45 a 26.31 26.31 0 0 1 -4 -1.94 c -1.08 -0.6 -2.39 -0.81 -3.11 -2 c 0 -0.07 -0.32 -0.07 -0.44 0 a 1.2 1.2 0 0 1 -1.35 -0.18 c -1.46 -1.3 -3.49 -1.28 -5 -2.2 c -1.23 -0.75 -2.62 -1.18 -3.77 -2 a 1.46 1.46 0 0 1 -0.5 -0.79 c -0.07 -0.2 -0.21 -0.44 -0.41 -0.27 c -0.84 0.71 -1.42 0 -2 -0.39 c -1.18 -0.87 -2.38 -0.62 -3.61 -0.22 a 35.63 35.63 0 0 1 2.49 -5 c 0.06 -0.06 0.15 -0.13 0.21 -0.09 c 1.25 0.71 2.74 0.84 4 1.66 a 21 21 0 0 0 5.46 2.35 a 7.14 7.14 0 0 1 1.75 0.74 c 3.74 2.32 7.92 3.7 11.82 5.68 c 3.3 1.68 6.71 3.11 10.1 4.6 a 3.26 3.26 0 0 1 1.89 2.63 A 10.62 10.62 0 0 1 99.72 99.29 Z" stroke-linecap="round" />
</g>
		<g transform="matrix(1 0 0 1 -95.94 3.47)" id="Layer_1-2"  >
<path style="stroke: none; stroke-width: 1; stroke-dasharray: none; stroke-linecap: butt; stroke-dashoffset: 0; stroke-linejoin: miter; stroke-miterlimit: 4; fill: rgb(105,185,69); fill-rule: nonzero; opacity: 1;"  transform=" translate(-93.5, -68.23)" d="M 76 58.8 c 0.71 0.61 0.76 -1.36 1.76 -0.41 c 0.29 0.28 1.3 -0.59 1.82 -1.13 s 0.93 -0.73 1.34 -1.16 a 0.47 0.47 0 0 1 0.62 -0.07 a 12.06 12.06 0 0 1 -2 2.08 c -0.34 0.3 -0.81 0.67 -0.63 1.19 A 1.17 1.17 0 0 0 80.2 60 c 0.56 0 1 0.06 1.26 0.65 c 0.15 0.37 0.54 0.43 0.87 0.57 A 72 72 0 0 1 91 65.4 c 0.63 0.37 1.28 0.26 1.9 0.56 c 5.08 2.43 10.15 4.89 15.3 7.17 a 8.1 8.1 0 0 1 3.49 2.18 c -0.71 1.54 -1.44 3.08 -2.12 4.63 a 1 1 0 0 1 -0.53 0.58 A 17.16 17.16 0 0 0 107 78.15 c -1.36 -1.19 -3.11 -1.61 -4.67 -2.36 C 98.5 74 94.55 72.44 90.86 70.37 a 6.22 6.22 0 0 0 -2.77 -1 a 1.4 1.4 0 0 1 -0.78 -0.28 c -2.48 -1.76 -5.46 -2.47 -8.13 -3.83 c -0.79 -0.4 -1.28 -0.86 -0.91 -1.76 s 0.08 -1.48 -0.85 -2 a 6.64 6.64 0 0 1 -2.11 -1.28 Z" stroke-linecap="round" />
</g>
		<g transform="matrix(1 0 0 1 -62.56 -50.58)" id="Layer_1-2"  >
<path style="stroke: none; stroke-width: 1; stroke-dasharray: none; stroke-linecap: butt; stroke-dashoffset: 0; stroke-linejoin: miter; stroke-miterlimit: 4; fill: rgb(159,204,59); fill-rule: nonzero; opacity: 1;"  transform=" translate(-126.88, -14.18)" d="M 116.22 5.58 c 0.28 0.48 0.7 0 1.07 0.09 c -0.24 0.71 -1.15 0.29 -1.31 1.13 c 0 0.14 0.32 0.19 0.51 0.19 c 1.49 0 2.55 1 3.8 1.58 s 2.22 1.44 3.49 0.12 a 1.62 1.62 0 0 1 2.29 0 a 34.12 34.12 0 0 1 4.26 3.42 a 4.53 4.53 0 0 1 1.23 2.27 a 1.85 1.85 0 0 0 2.37 1.68 c 1.49 -0.37 2.73 -0.35 3.67 1 a 0.4 0.4 0 0 0 0.52 0.15 a 1.3 1.3 0 0 1 1.52 0.35 a 3.26 3.26 0 0 0 3.55 0.48 a 0.58 0.58 0 0 1 0.8 0.19 l -3.55 4.56 A 13.87 13.87 0 0 1 135.22 21 c -1.92 -1.08 -3.78 -2 -6.06 -1.05 a 2 2 0 0 1 -2.22 -0.79 c -0.88 -1 -1.44 -2.23 -2.65 -2.87 a 37.38 37.38 0 0 0 -3.35 -1.91 c -2.72 -1.08 -5.26 -2.62 -8 -3.59 a 2.59 2.59 0 0 1 -1.09 -0.7 c -0.1 0 0 -0.21 -0.17 -0.16 a 0.19 0.19 0 0 1 0.07 0.2 s -0.07 0.09 -0.09 0.08 a 2.27 2.27 0 0 0 -1.79 0 c -0.07 0 -0.14 -0.15 -0.08 -0.27 a 23.88 23.88 0 0 1 4.75 -3.42 C 115 6.14 115.48 5.55 116.22 5.58 Z" stroke-linecap="round" />
</g>
		<g transform="matrix(1 0 0 1 -65.88 -46.11)" id="Layer_1-2"  >
<path style="stroke: none; stroke-width: 1; stroke-dasharray: none; stroke-linecap: butt; stroke-dashoffset: 0; stroke-linejoin: miter; stroke-miterlimit: 4; fill: rgb(155,203,60); fill-rule: nonzero; opacity: 1;"  transform=" translate(-123.56, -18.65)" d="M 109.74 9.88 a 3.61 3.61 0 0 1 1.93 0 h 0 c 2.3 1 4.69 1.84 6.92 3 c 1.22 0.66 2.42 1.58 3.94 1.52 c 0.65 0 0.38 0.73 0.78 0.89 c 1.88 0.76 2.88 2.43 4.11 3.88 a 1.68 1.68 0 0 0 2 0.36 a 7.8 7.8 0 0 1 1.36 -0.37 c 1.55 -0.33 2.72 0.55 4 1.15 a 16.8 16.8 0 0 0 4.79 1.94 c 0.32 0 0.61 0.35 0.91 0.53 c -0.93 1.36 -1.9 2.7 -2.78 4.09 c -0.18 0.28 -0.48 0.41 -0.61 0.69 a 6.53 6.53 0 0 0 -3.18 -1 a 0.53 0.53 0 0 1 -0.5 -0.27 C 132.48 25 131 24.52 129.61 24 c -2 -0.77 -3.82 -1.74 -5.76 -2.54 c -0.55 -0.22 -1.09 -0.46 -1.66 -0.66 c -1.11 -0.41 -1.26 -1.09 -0.53 -2 c 0.2 -0.24 0.42 -0.48 0.61 -0.74 s 0.42 -0.45 0.71 -0.79 a 19 19 0 0 1 -2.62 2.55 a 1 1 0 0 1 -0.34 0 c -2.67 -1.32 -5.48 -2.3 -8 -3.85 a 20.85 20.85 0 0 0 -3.64 -1.7 c -0.63 -0.22 -1.14 -0.51 -1.12 -1.19 s -0.65 0.11 -0.61 -0.39 A 9.08 9.08 0 0 1 109.74 9.88 Z" stroke-linecap="round" />
</g>
		<g transform="matrix(1 0 0 1 -75.28 -22.46)" id="Layer_1-2"  >
<path style="stroke: none; stroke-width: 1; stroke-dasharray: none; stroke-linecap: butt; stroke-dashoffset: 0; stroke-linejoin: miter; stroke-miterlimit: 4; fill: rgb(135,197,64); fill-rule: nonzero; opacity: 1;"  transform=" translate(-114.16, -42.3)" d="M 123.5 50.93 s -0.08 0 -0.1 -0.06 c -1 -1.11 -2 -1.62 -4.08 -2.46 c -1.62 -0.66 -3.14 -1.57 -4.74 -2.31 c -2 -0.91 -3.86 -1.91 -5.88 -2.67 c -0.8 -0.31 -1.54 -0.79 -2.34 -1.14 c -1.63 -0.73 -3.27 -1.45 -4.92 -2.13 c -0.72 -0.3 -0.88 -0.56 -0.2 -1.14 a 51.81 51.81 0 0 1 5.16 -4 c 1.3 1.24 3 1.77 4.57 2.5 A 29.47 29.47 0 0 1 115.78 40 a 15.62 15.62 0 0 0 2.56 0.94 l 7.14 3.25 a 95.51 95.51 0 0 0 -7.29 -6.67 c -0.92 -0.82 -1.78 -1.72 -2.74 -2.5 c -0.39 -0.31 -0.77 -0.74 -0.42 -1.34 c 0.44 0.17 0.64 0.74 1.2 0.72 a 2.13 2.13 0 0 1 0.71 0.72 a 0.73 0.73 0 0 0 0.72 0.48 c 2 1.61 3.91 3.4 6 5 c 1.33 1 2.58 2.11 3.85 3.18 c -1.17 2.26 -2.35 4.51 -3.52 6.78 C 123.86 50.68 123.8 50.92 123.5 50.93 Z" stroke-linecap="round" />
</g>
		<g transform="matrix(1 0 0 1 -88.62 -10.87)" id="Layer_1-2"  >
<path style="stroke: none; stroke-width: 1; stroke-dasharray: none; stroke-linecap: butt; stroke-dashoffset: 0; stroke-linejoin: miter; stroke-miterlimit: 4; fill: rgb(120,193,67); fill-rule: nonzero; opacity: 1;"  transform=" translate(-100.82, -53.89)" d="M 82.41 46.5 a 29.34 29.34 0 0 1 2 -3.76 c 0.52 -0.52 0.81 -0.58 1.49 0 a 8.79 8.79 0 0 0 3.45 1.53 c 0.19 0.06 0.43 0 0.57 0.15 c 1.69 1.5 2.79 0.1 4 -0.8 a 12.41 12.41 0 0 1 1.2 -1 a 0.56 0.56 0 0 1 0.76 0.06 c 0.23 0.27 0.07 0.54 -0.12 0.74 a 7.26 7.26 0 0 1 -1.6 1.43 c -0.25 0.19 -0.49 0.4 -0.73 0.62 c -1.35 1.25 -1.18 1.32 0.15 2.56 a 3.16 3.16 0 0 0 2.9 1.09 c 0.69 -0.1 1 0.66 1.62 0.94 c 1.51 0.71 3.09 1.25 4.64 1.88 a 7.14 7.14 0 0 1 3.11 2.07 c 0.2 0.25 0.37 0.17 0.6 0.16 a 6.19 6.19 0 0 1 3.89 1.17 c 0.67 0.46 0.71 0.78 0.49 1.68 c 1.3 -1.34 2.48 -0.13 3.41 0.34 c 1.23 0.62 2.55 1.09 3.73 1.8 c 0.56 0.34 0.54 -0.53 1 -0.34 s 0.21 0.41 0.27 0.63 a 35.52 35.52 0 0 1 -2.93 6 c -0.7 -1.07 0 -1.78 0.69 -2.55 a 6.73 6.73 0 0 1 -3.39 -1 c -2.35 -1.25 -4.86 -2.2 -7.18 -3.46 s -5.12 -2 -7.5 -3.39 a 32.93 32.93 0 0 0 -4.19 -2 c -2 -0.84 -3.86 -1.89 -5.74 -2.92 a 0.77 0.77 0 0 1 -0.38 -0.45 a 0.69 0.69 0 0 1 0.25 -0.63 c 0.9 -0.39 1.3 -1.35 2 -1.92 c -0.85 0.55 -1.37 1.47 -2.27 2 a 1.15 1.15 0 0 1 -0.74 0.43 a 4.45 4.45 0 0 1 -2.26 -0.7 a 4.22 4.22 0 0 0 -1.89 -0.7 C 82.55 48.14 82.32 47.46 82.41 46.5 Z" stroke-linecap="round" />
</g>
		<g transform="matrix(1 0 0 1 -86.54 -16.21)" id="Layer_1-2"  >
<path style="stroke: none; stroke-width: 1; stroke-dasharray: none; stroke-linecap: butt; stroke-dashoffset: 0; stroke-linejoin: miter; stroke-miterlimit: 4; fill: rgb(126,194,66); fill-rule: nonzero; opacity: 1;"  transform=" translate(-102.9, -48.55)" d="M 119.17 59.53 c -0.31 -0.12 -0.11 -0.32 -0.07 -0.5 a 2.57 2.57 0 0 1 0 -0.48 a 2 2 0 0 1 0.16 -0.63 c 0.08 -0.21 0.18 -0.29 -0.16 -0.49 c -1.24 -0.74 -2.67 -1 -4 -1.65 a 48.52 48.52 0 0 1 -5.34 -2.55 c -1.74 -1.14 -3.83 -1.34 -5.52 -2.52 a 9.19 9.19 0 0 0 -4.75 -2.06 a 0.44 0.44 0 0 1 -0.32 -0.13 c -0.79 -1.14 -2.38 -1 -3.24 -2 c -0.29 -0.35 -0.81 -0.28 -1.23 -0.42 c -0.67 -0.22 -1.15 -0.59 -0.78 -1.41 c 0.76 -0.16 1 -1 1.62 -1.33 c 0.17 -0.08 0.33 -0.29 0.11 -0.48 s -0.36 0 -0.51 0.11 a 24.89 24.89 0 0 1 -2.85 2.27 c -0.42 0.31 -1 0.62 -1.28 0.3 c -1.28 -1.22 -3.22 -1 -4.51 -2.07 c -0.36 -0.31 -1.15 0.14 -1.17 -0.9 c 0 -0.59 -0.5 0.66 -0.95 0.19 A 46.61 46.61 0 0 1 87 38.18 c 0.72 0.46 0.48 -0.68 1 -0.6 c 0.19 0.38 0.15 0.36 -0.1 0.78 s 0.19 0.63 0.42 0.68 a 19.44 19.44 0 0 1 5 2.36 c 2.68 1.48 4 -0.44 5.79 -1.59 c 0.21 -0.14 0.35 -0.59 0.64 -0.33 s -0.1 0.57 -0.29 0.74 c -0.77 0.7 -1.54 1.39 -2.36 2 c -0.55 0.42 -0.44 0.75 0.07 1 c 2.67 1.07 5.16 2.54 7.91 3.48 a 34.09 34.09 0 0 1 4 1.82 a 104.94 104.94 0 0 0 10.17 4.67 a 3.36 3.36 0 0 1 2.16 2.06 A 17.24 17.24 0 0 1 119.17 59.53 Z" stroke-linecap="round" />
</g>
		<g transform="matrix(1 0 0 1 -79.91 -30.49)" id="Layer_1-2"  >
<path style="stroke: none; stroke-width: 1; stroke-dasharray: none; stroke-linecap: butt; stroke-dashoffset: 0; stroke-linejoin: miter; stroke-miterlimit: 4; fill: rgb(139,198,63); fill-rule: nonzero; opacity: 1;"  transform=" translate(-109.53, -34.28)" d="M 115 33.63 c 0.56 1.71 2.18 2.45 3.36 3.57 c 2.42 2.28 5 4.43 7.42 6.64 a 0.69 0.69 0 0 1 0.22 0.85 a 11.49 11.49 0 0 1 -2 -0.74 a 42.05 42.05 0 0 0 -5.37 -2.47 c -2.26 -0.93 -4.45 -2.08 -6.67 -3.12 c -1.5 -0.71 -3 -1.43 -4.51 -2.06 c -0.61 -0.26 -1.06 -0.54 -1.12 -1.23 l 0.24 -0.24 c 0.47 -0.62 1.26 -0.9 1.67 -1.58 a 9.1 9.1 0 0 1 -1.91 1.1 l -0.48 0.24 c -0.36 0.18 -0.84 0.21 -1 0.72 l -0.24 0.24 a 0.37 0.37 0 0 1 -0.53 0 c -2 -2 -4.52 -2.83 -7 -3.76 a 7.53 7.53 0 0 1 -3 -1.88 A 1.15 1.15 0 0 1 94 28.74 c -0.29 0.19 -0.57 0.44 -0.9 0.07 a 0.49 0.49 0 0 1 -0.11 -0.2 a 35.53 35.53 0 0 1 3.33 -4.75 c 0.13 0.24 0.38 0.48 0.39 0.73 c 0.09 2.3 2 1.95 3.39 2.33 c 0.11 0 0.32 0 0.34 0 c 0.63 1.51 2.77 0.53 3.45 2.15 c 0.23 0.54 1.33 0.22 2 0.75 A 21.06 21.06 0 0 0 109.36 32 c 1.32 0.65 2.61 2.12 4.44 1 C 114.15 32.84 114.68 33.28 115 33.63 Z" stroke-linecap="round" />
</g>
		<g transform="matrix(1 0 0 1 -110.57 33.72)" id="Layer_1-2"  >
<path style="stroke: none; stroke-width: 1; stroke-dasharray: none; stroke-linecap: butt; stroke-dashoffset: 0; stroke-linejoin: miter; stroke-miterlimit: 4; fill: rgb(80,161,69); fill-rule: nonzero; opacity: 1;"  transform=" translate(-78.87, -98.48)" d="M 94.66 108.38 c -0.23 -0.92 -1.1 -1.13 -1.79 -1.4 c -2 -0.83 -3.94 -2 -5.94 -2.83 c -2.21 -1 -4.36 -2 -6.59 -2.93 a 55.27 55.27 0 0 1 -6.08 -2.86 a 44.76 44.76 0 0 0 -8.92 -3.76 c -0.42 -0.13 -0.62 -0.48 -0.87 -0.78 s -0.42 -0.1 -0.5 0.2 c -0.61 0 -0.65 -0.59 -0.9 -1 a 22.91 22.91 0 0 1 -1 -2.76 a 3.9 3.9 0 0 0 -0.37 -1.14 a 0.7 0.7 0 0 1 0.12 -0.51 a 4 4 0 0 1 2.45 0.54 c 1.93 0.72 3.75 1.68 5.71 2.38 a 35.08 35.08 0 0 1 4.49 2.19 c 2.6 1.39 5.33 2.49 8 3.68 c 4 1.78 7.8 4.11 12 5.56 c 1.71 0.6 2 2 1 4.06 A 1.74 1.74 0 0 1 94.66 108.38 Z" stroke-linecap="round" />
</g>
		<g transform="matrix(1 0 0 1 -102.94 16.83)" id="Layer_1-2"  >
<path style="stroke: none; stroke-width: 1; stroke-dasharray: none; stroke-linecap: butt; stroke-dashoffset: 0; stroke-linejoin: miter; stroke-miterlimit: 4; fill: rgb(95,174,70); fill-rule: nonzero; opacity: 1;"  transform=" translate(-86.5, -81.59)" d="M 67.83 75.32 l 1.45 -2.87 c 0.37 -0.53 0.65 -0.64 1.32 -0.22 a 19.92 19.92 0 0 0 4 2.07 c 1.77 0.61 3.33 1.7 5.09 2.34 a 48.79 48.79 0 0 1 8 3.75 a 0.26 0.26 0 0 0 0.34 0 c -0.06 -0.5 -0.51 -0.66 -0.86 -0.87 c -2.15 -1.31 -4.06 -3 -6.2 -4.26 a 6.26 6.26 0 0 1 -1.47 -1.39 c -0.25 -0.3 -0.55 -0.65 -0.06 -1 a 0.92 0.92 0 0 1 0.33 0 a 17.66 17.66 0 0 1 2.09 1.55 a 3.85 3.85 0 0 0 1.2 0.79 c 1.92 1 3.49 2.5 5.3 3.68 a 32 32 0 0 1 4.28 3.26 c 0.92 0.84 2.15 1 3.22 1.54 c 2.87 1.38 5.74 2.76 8.64 4.07 a 1.22 1.22 0 0 1 0.68 1 c -0.44 0.7 -0.46 1.62 -1.16 2.18 c -0.11 0.06 -0.23 0 -0.33 0 s -0.21 -0.9 -0.47 0 c -0.14 0.49 -0.58 0.17 -0.89 0 a 15.92 15.92 0 0 1 -3.16 -2.35 a 38.7 38.7 0 0 0 -3 -2.65 a 18.83 18.83 0 0 1 2.6 2.56 c 0.27 0.28 0.53 0.56 0.26 0.93 a 0.62 0.62 0 0 1 -1 0 c -0.67 -0.63 -1.6 -0.71 -2.35 -1.15 a 13.06 13.06 0 0 0 -4.55 -1.86 c -1 -0.17 -1.54 -1.32 -2.51 -1.56 c -2.11 -0.52 -3.9 -1.71 -5.83 -2.59 a 42.92 42.92 0 0 1 -5.41 -2.42 a 5.06 5.06 0 0 0 -1.78 -0.68 c -0.32 -0.06 -0.7 -0.14 -0.84 -0.41 c -0.39 -0.71 -1 -0.85 -1.74 -1.08 a 8.73 8.73 0 0 1 -3.22 -1.51 C 69.25 75.67 68.45 75.72 67.83 75.32 Z" stroke-linecap="round" />
</g>
		<g transform="matrix(1 0 0 1 -100.3 8.32)" id="Layer_1-2"  >
<path style="stroke: none; stroke-width: 1; stroke-dasharray: none; stroke-linecap: butt; stroke-dashoffset: 0; stroke-linejoin: miter; stroke-miterlimit: 4; fill: rgb(101,180,70); fill-rule: nonzero; opacity: 1;"  transform=" translate(-89.14, -73.08)" d="M 79.8 72.92 h -0.24 a 10.35 10.35 0 0 1 -2.73 -1.68 a 1.3 1.3 0 0 0 -1.72 -0.11 a 3.1 3.1 0 0 1 -2.73 0.41 a 3.94 3.94 0 0 0 -1.28 -0.09 c -0.35 0 -1.19 0.13 -0.92 -0.79 c 0.37 -3 2.7 -5 3.69 -7.65 a 16.49 16.49 0 0 1 0.86 -1.67 a 4.88 4.88 0 0 0 1.77 1.84 a 1.62 1.62 0 0 1 0.87 1.8 a 11.87 11.87 0 0 0 -0.19 1.89 a 1.08 1.08 0 0 0 0.6 1.18 c 1.45 0.92 3 1.61 4.53 2.43 c 1.69 0.92 3.6 1.33 5.27 2.18 s 3.52 1.91 5.34 2.67 c 2.72 1.13 5.23 2.69 8 3.73 c 1.79 0.66 3.36 1.82 5.19 2.43 a 2 2 0 0 1 0.9 0.76 c 0.38 -0.23 0.37 -1 1 -0.77 a 0.45 0.45 0 0 1 0.12 0.5 c -0.48 1 -0.64 2.1 -1.55 2.83 a 6.38 6.38 0 0 1 -2.87 -0.68 c -3 -1.43 -6.06 -2.64 -8.92 -4.32 c -0.69 -0.41 -1.56 -0.34 -2.26 -0.76 c -3.46 -2.06 -7.4 -3.13 -10.85 -5.22 A 13.54 13.54 0 0 1 79.8 72.92 Z" stroke-linecap="round" />
</g>
		<g transform="matrix(1 0 0 1 -90.51 -3.1)" id="Layer_1-2"  >
<path style="stroke: none; stroke-width: 1; stroke-dasharray: none; stroke-linecap: butt; stroke-dashoffset: 0; stroke-linejoin: miter; stroke-miterlimit: 4; fill: rgb(114,191,68); fill-rule: nonzero; opacity: 1;"  transform=" translate(-98.93, -61.66)" d="M 113.82 70.76 c -0.29 -0.6 -0.4 -1.23 -1.46 -0.94 c -0.5 0.13 -1.24 -0.59 -1.86 -0.94 c -1.93 -1.09 -4 -2 -6 -2.89 a 22.15 22.15 0 0 0 -4.59 -2 c -0.59 -0.12 -1.08 -0.67 -1.67 -0.87 c -2.47 -0.83 -4.7 -2.18 -7.12 -3.12 c -1.81 -0.7 -3.49 -1.73 -5.24 -2.58 a 19.82 19.82 0 0 0 -2.75 -1.12 c -0.82 -0.26 -0.68 -0.62 -0.25 -1.06 c 0.87 -0.91 1.76 -1.79 2.65 -2.68 c 1.19 1.32 2.86 1.87 4.4 2.57 c 2.78 1.28 5.59 2.47 8.35 3.78 a 50.08 50.08 0 0 0 6.89 3 a 17.92 17.92 0 0 1 2.64 1.38 c 1.85 0.92 3.9 1.41 5.58 2.69 c 0.43 0.32 1 0.51 1 0.93 c -0.08 -0.28 -0.26 -0.74 0.52 -0.79 c 0.9 0.47 0 1.21 0.28 1.78 Z" stroke-linecap="round" />
</g>
		<g transform="matrix(1 0 0 1 -104.08 20.36)" id="Layer_1-2"  >
<path style="stroke: none; stroke-width: 1; stroke-dasharray: none; stroke-linecap: butt; stroke-dashoffset: 0; stroke-linejoin: miter; stroke-miterlimit: 4; fill: rgb(92,173,70); fill-rule: nonzero; opacity: 1;"  transform=" translate(-85.36, -85.12)" d="M 67.83 75.32 c 1.1 -0.52 1.83 0.33 2.55 0.83 a 6.15 6.15 0 0 0 3.7 1.26 c 0.1 0 0.28 0 0.29 0.11 c 0.49 2 2.54 1.43 3.75 2.28 c 2 1.41 4.67 1.62 6.63 3.1 c 1.3 1 2.87 0.94 4.19 1.71 c 1 0.61 1.79 1.84 3.15 1.76 c 1.63 -0.09 2.61 1.16 3.91 1.75 c 0.75 0.34 1.75 0.24 2.24 1.15 a 0.37 0.37 0 0 0 0.62 0 c 0.17 -0.25 -0.06 -0.36 -0.24 -0.54 c -1.13 -1.12 -2.19 -2.32 -3.42 -3.35 c 0 0 0 -0.21 0 -0.51 c 1.2 0.95 2.37 1.75 3.37 2.72 a 33 33 0 0 0 3.7 3 c 0.72 0.52 0.9 0.22 1 -0.5 c 0.27 0.33 0.29 0.75 0.69 0.85 a 12.4 12.4 0 0 1 -2.15 4.14 c -0.73 -1.78 -2.29 -2.57 -3.93 -3.22 c -3.47 -1.38 -6.76 -3.13 -10.14 -4.68 C 84.22 85.5 80.58 84 77.15 82 c -1.18 -0.68 -2.67 -0.84 -4 -1.4 A 17.94 17.94 0 0 1 70 78.82 c -0.58 -0.41 -1.23 -0.75 -1.79 0.31 c 0.22 -1.35 -1 -1.17 -1.46 -1.65 Z" stroke-linecap="round" />
</g>
		<g transform="matrix(1 0 0 1 -109.95 31.5)" id="Layer_1-2"  >
<path style="stroke: none; stroke-width: 1; stroke-dasharray: none; stroke-linecap: butt; stroke-dashoffset: 0; stroke-linejoin: miter; stroke-miterlimit: 4; fill: rgb(83,164,70); fill-rule: nonzero; opacity: 1;"  transform=" translate(-79.49, -96.26)" d="M 61.35 88.49 l -0.27 -1.16 c 0.38 -0.28 0.86 -0.46 1 -1 c 0.27 0.14 0.41 0.1 0.49 -0.23 c 0.19 -0.74 0.8 -0.53 1.33 -0.61 c 0.71 -0.12 0.58 0.44 0.69 0.72 s 0.41 0.83 0.8 0.77 c 1.61 -0.2 2.52 1.16 3.81 1.66 c 3.59 1.4 6.93 3.38 10.54 4.76 a 10.72 10.72 0 0 1 2.3 1.25 c 0.86 0.6 1.61 1.57 2.94 1.15 a 1.5 1.5 0 0 1 1.09 0.4 c 1.77 1.43 4 2 5.87 3.22 a 4.89 4.89 0 0 0 2.26 0.62 c 1.45 0.13 2 1.84 3.52 1.57 c 0.25 0 0.18 0.34 0.15 0.59 c 0 0.41 -0.51 0.69 -0.32 1.15 a 12.11 12.11 0 0 1 -2.15 3.69 c 0 -0.81 0.58 -1.51 0.24 -2.43 a 2 2 0 0 0 -1.43 -1.42 c -2.42 -0.49 -4.32 -2.08 -6.53 -3 s -4.33 -1.93 -6.44 -3 c -1.77 -0.88 -3.74 -1.31 -5.38 -2.44 c -1.45 -1 -3.21 -1.32 -4.71 -2.22 c -2.09 -1.25 -4.53 -1.74 -6.63 -3 c -0.85 -0.5 -1.9 -0.33 -2.74 -0.87 c -0.26 0.11 -0.32 -0.12 -0.44 -0.25 Z" stroke-linecap="round" />
</g>
		<g transform="matrix(1 0 0 1 -97.49 6.41)" id="Layer_1-2"  >
<path style="stroke: none; stroke-width: 1; stroke-dasharray: none; stroke-linecap: butt; stroke-dashoffset: 0; stroke-linejoin: miter; stroke-miterlimit: 4; fill: rgb(103,183,69); fill-rule: nonzero; opacity: 1;"  transform=" translate(-91.95, -71.17)" d="M 77.16 65 A 1.71 1.71 0 0 0 76 63.16 a 1.73 1.73 0 0 1 -1.23 -1.82 a 2.13 2.13 0 0 1 0.58 -1.11 c 1.21 0 2 1 3 1.42 c 0.73 0.27 0.64 1.13 0.25 1.77 s -0.34 1.26 0.4 1.4 c 1.57 0.3 2.78 1.29 4.15 2 c 0.66 0.32 1.36 0.37 2 0.62 c 0.22 0.09 0.49 0.07 0.68 0.2 c 3.17 2.12 6.83 3.26 10.19 5 c 2 1 4.16 1.84 6.2 2.8 c 1.58 0.74 3.43 1 4.69 2.41 a 1.05 1.05 0 0 0 0.53 0.28 c 1.39 0.25 2 1 1.55 2.41 c -0.2 0.51 0.06 1.24 -0.69 1.51 a 0.15 0.15 0 0 1 -0.25 0 v -0.48 A 3.66 3.66 0 0 0 106 80.34 a 7.75 7.75 0 0 1 -3.52 -1.64 c -1.11 -1 -2.65 -1.28 -4 -1.85 c -1.1 -0.48 -2.07 -1.15 -3.15 -1.65 c -2.42 -1.1 -4.81 -2.37 -7.29 -3.27 c -2.94 -1.07 -5.33 -3.21 -8.42 -3.89 a 5.74 5.74 0 0 1 -2.11 -1.34 C 76.92 66.26 77.19 65.6 77.16 65 Z" stroke-linecap="round" />
</g>
		<g transform="matrix(1 0 0 1 -87.62 -5.99)" id="Layer_1-2"  >
<path style="stroke: none; stroke-width: 1; stroke-dasharray: none; stroke-linecap: butt; stroke-dashoffset: 0; stroke-linejoin: miter; stroke-miterlimit: 4; fill: rgb(117,192,67); fill-rule: nonzero; opacity: 1;"  transform=" translate(-101.82, -58.77)" d="M 115.25 67.88 c -0.59 -0.48 0.27 -1.16 -0.22 -1.67 a 2.75 2.75 0 0 0 -2 -1.63 a 35.33 35.33 0 0 1 -3.84 -1.93 q -6.66 -3 -13.31 -6.09 c -2.29 -1 -4.55 -2.17 -6.94 -3 c -0.94 -0.33 -1.55 -1.2 -2.43 -1.65 a 2.84 2.84 0 0 1 2.17 -2.24 Q 91.77 51.5 95 53 c 1.86 0.85 3.71 1.7 5.51 2.67 c 1 0.53 2.07 0.74 3.07 1.19 c 2 0.89 3.88 2.23 5.95 2.92 c 2.34 0.78 4.24 2.44 6.69 2.94 c 0.33 0.06 0.73 -0.31 0.88 0 s -0.21 0.87 -0.52 1.12 c -0.61 0.49 -0.24 1.12 -0.38 1.67 C 116.24 66.46 115.53 67.08 115.25 67.88 Z" stroke-linecap="round" />
</g>
		<g transform="matrix(1 0 0 1 -96.11 16.05)" id="Layer_1-2"  >
<path style="stroke: none; stroke-width: 1; stroke-dasharray: none; stroke-linecap: butt; stroke-dashoffset: 0; stroke-linejoin: miter; stroke-miterlimit: 4; fill: rgb(98,178,70); fill-rule: nonzero; opacity: 1;"  transform=" translate(-93.33, -80.81)" d="M 79.8 72.92 c 2 0.17 3.4 1.58 5.16 2.24 c 2.71 1 5.22 2.59 7.91 3.61 c 3 1.14 5.68 2.86 8.64 4 a 22.85 22.85 0 0 0 5.13 1.87 c 0.19 0.11 0.1 0.35 0.23 0.48 a 16.32 16.32 0 0 1 -1.68 3.59 c -0.57 -0.91 -1.64 -1.07 -2.48 -1.53 c -1.65 -0.9 -3.41 -1.6 -5.14 -2.33 a 40.37 40.37 0 0 1 -9.36 -5.79 c -1.7 -1.33 -3.53 -2.51 -5.3 -3.76 a 3.5 3.5 0 0 0 -1.2 -0.72 C 81.2 73.9 80.18 73.77 79.8 72.92 Z" stroke-linecap="round" />
</g>
		<g transform="matrix(1 0 0 1 -92.28 -31.2)" id="Layer_1-2"  >
<path style="stroke: none; stroke-width: 1; stroke-dasharray: none; stroke-linecap: butt; stroke-dashoffset: 0; stroke-linejoin: miter; stroke-miterlimit: 4; fill: rgb(135,197,64); fill-rule: nonzero; opacity: 1;"  transform=" translate(-97.16, -33.56)" d="M 93 28.61 c 0.21 -0.07 0.53 0.66 0.64 -0.1 c 0 -0.25 0.25 -0.15 0.38 -0.13 c 0.29 0.05 0.19 0.26 0.17 0.46 c 0 0.75 0.32 1.13 1 1.54 c 2.29 1.39 4.92 2 7.23 3.36 a 9 9 0 0 1 2.28 1.81 c -1.69 1 -3.07 2.55 -5.08 3.11 a 1.58 1.58 0 0 1 -1.21 0 c -1.22 -0.55 -2.36 -1.26 -3.61 -1.77 A 48 48 0 0 1 90 34.27 c -0.16 -0.09 -0.25 -0.29 -0.38 -0.44 A 37.82 37.82 0 0 1 93 28.61 Z" stroke-linecap="round" />
</g>
		<g transform="matrix(1 0 0 1 -63.99 -36.43)" id="Layer_1-2"  >
<path style="stroke: none; stroke-width: 1; stroke-dasharray: none; stroke-linecap: butt; stroke-dashoffset: 0; stroke-linejoin: miter; stroke-miterlimit: 4; fill: rgb(149,201,61); fill-rule: nonzero; opacity: 1;"  transform=" translate(-125.45, -28.33)" d="M 135 30.77 a 16.24 16.24 0 0 1 -2.18 3.59 a 4.41 4.41 0 0 0 -1.14 -0.72 a 3.1 3.1 0 0 0 -1 -0.88 c -2.31 -1.06 -4.6 -2.16 -6.91 -3.23 s -4.57 -2.18 -6.87 -3.24 a 1.68 1.68 0 0 1 -1 -0.93 c 0.11 -1.43 1.41 -1.94 2.19 -2.86 a 0.72 0.72 0 0 1 0.66 -0.19 A 7 7 0 0 0 121 23.46 a 25.23 25.23 0 0 1 3.86 1.84 c 1.48 0.74 3.06 1.27 4.6 1.88 s 3 1.89 4.8 2.42 A 1.15 1.15 0 0 1 135 30.77 Z" stroke-linecap="round" />
</g>
		<g transform="matrix(1 0 0 1 -61.57 -41.11)" id="Layer_1-2"  >
<path style="stroke: none; stroke-width: 1; stroke-dasharray: none; stroke-linecap: butt; stroke-dashoffset: 0; stroke-linejoin: miter; stroke-miterlimit: 4; fill: rgb(151,201,61); fill-rule: nonzero; opacity: 1;"  transform=" translate(-127.87, -23.66)" d="M 135 30.77 a 2.7 2.7 0 0 0 -2.36 -1.49 a 1.07 1.07 0 0 1 -0.78 -0.25 c -1.05 -1.39 -2.7 -1.75 -4.18 -2.2 c -2.71 -0.82 -4.86 -2.87 -7.71 -3.3 c -0.62 -0.09 -1 -0.67 -1.3 -1.16 c -0.12 -0.63 0.44 -0.85 0.73 -1.24 s 1 -0.69 1 -1.4 l 3 -3.19 l 0.25 0.23 A 8.45 8.45 0 0 1 121.87 19 c -0.56 0.69 -0.46 1.29 0.41 1.54 A 58.28 58.28 0 0 1 128 23 a 22.62 22.62 0 0 1 4.11 1.84 c 0.55 0.36 1.44 0.37 1.48 1.35 c 0 0.29 0.36 0.27 0.59 0.17 c 1 -0.42 1.59 0.6 2.47 0.64 c 0.15 0 0.29 0.42 0.44 0.65 A 16.54 16.54 0 0 1 135 30.77 Z" stroke-linecap="round" />
</g>
		<g transform="matrix(1 0 0 1 -80.39 -44.46)" id="Layer_1-2"  >
<path style="stroke: none; stroke-width: 1; stroke-dasharray: none; stroke-linecap: butt; stroke-dashoffset: 0; stroke-linejoin: miter; stroke-miterlimit: 4; fill: rgb(148,201,61); fill-rule: nonzero; opacity: 1;"  transform=" translate(-109.05, -20.3)" d="M 102.09 19.26 c -0.63 0.08 -1.27 0.19 -1.43 -0.69 l 2.63 -2.9 c 0.35 -0.23 0.59 -0.54 1.12 -0.1 a 16.9 16.9 0 0 0 4.64 2.58 A 45.14 45.14 0 0 1 115.44 21 c 0.69 0.42 1.68 0.37 2 1.3 c -0.38 1.36 -1.49 2.08 -2.52 2.87 a 3.3 3.3 0 0 1 -2.62 -0.5 c -2.32 -1.13 -4.63 -2.28 -7 -3.28 A 6.88 6.88 0 0 1 102.09 19.26 Z" stroke-linecap="round" />
</g>
		<g transform="matrix(1 0 0 1 -77.7 -47.25)" id="Layer_1-2"  >
<path style="stroke: none; stroke-width: 1; stroke-dasharray: none; stroke-linecap: butt; stroke-dashoffset: 0; stroke-linejoin: miter; stroke-miterlimit: 4; fill: rgb(151,201,61); fill-rule: nonzero; opacity: 1;"  transform=" translate(-111.74, -17.51)" d="M 117.42 22.37 c -1.47 -0.68 -2.73 -1.8 -4.36 -2.17 a 11.7 11.7 0 0 1 -2.33 -1.07 c -1.3 -0.59 -2.78 -0.77 -3.93 -1.78 c -0.66 -0.57 -1.78 -0.64 -2.41 -1.23 a 1.21 1.21 0 0 0 -1.1 -0.45 a 9.75 9.75 0 0 1 2.57 -2.43 c 0.22 -0.2 0.59 -0.21 0.74 -0.52 h 0 c 0.34 0.16 0.56 -0.21 0.91 -0.22 c -0.2 0.82 0 1.2 0.92 1.51 c 1.47 0.48 2.78 1.45 4.23 2 c 1.75 0.67 3.12 2.08 5.09 2.35 c 0.82 0.11 1.54 0.9 2.31 1.37 c 0.32 0.45 0 0.72 -0.29 1 a 20.55 20.55 0 0 1 -1.85 1.76 A 0.49 0.49 0 0 1 117.42 22.37 Z" stroke-linecap="round" />
</g>
		<g transform="matrix(1 0 0 1 -66.6 -34.58)" id="Layer_1-2"  >
<path style="stroke: none; stroke-width: 1; stroke-dasharray: none; stroke-linecap: butt; stroke-dashoffset: 0; stroke-linejoin: miter; stroke-miterlimit: 4; fill: rgb(145,200,62); fill-rule: nonzero; opacity: 1;"  transform=" translate(-122.84, -30.19)" d="M 117.42 22.37 h 0.48 a 0.28 0.28 0 0 1 0.24 0.24 c -0.54 1 -1.78 1.47 -2.15 2.63 c -0.69 1.29 -0.68 1.27 0.57 2 a 43.11 43.11 0 0 0 7.78 3.58 A 11.19 11.19 0 0 1 126.13 32 c 1.47 0.82 3.19 1 4.67 1.78 c 0.39 0.21 0.65 -0.22 1 -0.14 c 0.08 0 0.15 0.06 0.22 0.07 c 0.4 0 0.28 -0.77 0.73 -0.49 s -0.55 0.36 -0.18 0.74 a 1.56 1.56 0 0 1 0.2 0.41 A 16.39 16.39 0 0 1 130.61 38 c -0.1 -0.38 -1.09 -0.28 -0.52 -1.09 c 0.12 -0.17 -0.49 -0.63 -1 -0.72 c -1.5 -0.32 -2.71 -1.3 -4.11 -1.81 a 36.69 36.69 0 0 1 -3.79 -1.81 c -1.26 -0.64 -2.62 -1 -3.85 -1.66 c -0.81 -0.45 -1.76 -0.56 -2.39 -1.41 c -0.5 -0.67 -1.15 -1.19 -1.24 -2.1 c -0.05 -0.58 -0.62 -0.91 -0.89 -1.39 c 0 -0.51 0.35 -0.65 0.81 -0.62 A 2.09 2.09 0 0 0 115 25 Z" stroke-linecap="round" />
</g>
		<g transform="matrix(1 0 0 1 -110.52 10.97)" id="Layer_1-2"  >
<path style="stroke: none; stroke-width: 1; stroke-dasharray: none; stroke-linecap: butt; stroke-dashoffset: 0; stroke-linejoin: miter; stroke-miterlimit: 4; fill: rgb(97,176,69); fill-rule: nonzero; opacity: 1;"  transform=" translate(-78.92, -75.73)" d="M 70.18 70.66 c -0.09 0.68 0.81 -0.09 0.77 0.52 c 1.08 -0.49 2.13 0.7 3.22 0.07 c 0.1 0 0.29 0 0.35 0 c 1.34 -1.53 2.34 -0.31 3.36 0.45 c 0.56 0.41 1.28 0.64 1.68 1.27 c -0.13 1.18 0.92 1.56 1.58 2 c 2.12 1.59 4.37 3 6.57 4.52 a 2.47 2.47 0 0 1 0.49 0.33 c 0.23 0.27 0.56 0.59 0.32 0.94 s -0.71 0.13 -1 0 a 24.11 24.11 0 0 0 -5.8 -3 c -2.55 -0.92 -4.89 -2.25 -7.39 -3.24 a 15.94 15.94 0 0 1 -4.29 -2.33 c -0.5 -0.41 -0.31 0.88 -0.81 0.27 A 6 6 0 0 1 70.18 70.66 Z" stroke-linecap="round" />
</g>
		<g transform="matrix(1 0 0 1 -65.88 -25.14)" id="Layer_1-2"  >
<path style="stroke: none; stroke-width: 1; stroke-dasharray: none; stroke-linecap: butt; stroke-dashoffset: 0; stroke-linejoin: miter; stroke-miterlimit: 4; fill: rgb(140,198,63); fill-rule: nonzero; opacity: 1;"  transform=" translate(-123.56, -39.62)" d="M 127.49 43.69 C 126 43.37 125.2 42 124 41.17 a 68.89 68.89 0 0 1 -5.39 -4.43 a 8.68 8.68 0 0 1 -1 -1.19 c 0.52 0 1 0 1.56 0 s 0.87 0.1 0.85 0.71 a 1.28 1.28 0 0 0 0.13 0.54 c 1.2 -0.22 1.78 1.08 2.86 1.16 a 4.48 4.48 0 0 1 2.81 1.1 c 0.45 0.43 0.67 0.07 1 0 s 0.86 -0.45 0.56 0.45 c -0.2 0.62 0.83 0.42 0.94 1 c -0.22 -0.78 0.55 -0.93 0.67 -1.43 c 0.43 0.13 0.24 0.6 0.53 0.78 Z" stroke-linecap="round" />
</g>
		<g transform="matrix(1 0 0 1 -105.78 -15.03)" id="Layer_1-2"  >
<path style="stroke: none; stroke-width: 1; stroke-dasharray: none; stroke-linecap: butt; stroke-dashoffset: 0; stroke-linejoin: miter; stroke-miterlimit: 4; fill: rgb(117,192,67); fill-rule: nonzero; opacity: 1;"  transform=" translate(-83.66, -49.73)" d="M 82.41 46.5 c 0.25 0.75 0.37 1.55 1.55 1.37 a 2.35 2.35 0 0 1 1.5 0.6 a 7.68 7.68 0 0 0 2.49 1 c -0.14 1.11 -1.15 1.49 -1.8 2.17 a 5.6 5.6 0 0 1 -1.08 0.71 l -0.72 0.48 c -0.62 0.36 -1.06 -0.11 -1.51 -0.38 a 2.43 2.43 0 0 0 -1.62 -0.57 c -0.55 0.06 -0.73 -0.33 -0.5 -0.65 a 3.3 3.3 0 0 1 -0.66 1.36 c -0.42 0.43 -0.58 0.25 -0.68 -0.23 C 80.35 50.37 81.26 48.37 82.41 46.5 Z" stroke-linecap="round" />
</g>
		<g transform="matrix(1 0 0 1 -108.3 -11.83)" id="Layer_1-2"  >
<path style="stroke: none; stroke-width: 1; stroke-dasharray: none; stroke-linecap: butt; stroke-dashoffset: 0; stroke-linejoin: miter; stroke-miterlimit: 4; fill: rgb(114,191,68); fill-rule: nonzero; opacity: 1;"  transform=" translate(-81.14, -52.93)" d="M 79.38 52.33 c 0.15 0 0.12 0.46 0.48 0.07 c 0.52 -0.57 0.49 -1.68 1.79 -1.75 c -0.33 0.25 -0.53 0.38 -0.71 0.53 s 0 0.5 0.07 0.45 c 1.32 -0.73 1.78 0.88 2.77 1 a 3.74 3.74 0 0 1 0.57 0.17 c -1.18 1.41 -2.43 2.71 -4.66 2.08 a 1.71 1.71 0 0 0 -0.3 -1.23 c -0.55 0.46 -0.45 1.54 -1.45 1.56 Z" stroke-linecap="round" />
</g>
		<g transform="matrix(1 0 0 1 -55.16 -64.29)" id="Layer_1-2"  >
<path style="stroke: none; stroke-width: 1; stroke-dasharray: none; stroke-linecap: butt; stroke-dashoffset: 0; stroke-linejoin: miter; stroke-miterlimit: 4; fill: rgb(171,208,55); fill-rule: nonzero; opacity: 1;"  transform=" translate(-134.28, -0.47)" d="M 136.84 0.34 a 11.22 11.22 0 0 1 -5.12 0.2 a 5.24 5.24 0 0 1 2.42 -0.23 A 6.82 6.82 0 0 1 136.84 0.34 Z" stroke-linecap="round" />
</g>
		<g transform="matrix(1 0 0 1 -81.96 18.82)" id="Layer_1-2"  >
<path style="stroke: none; stroke-width: 1; stroke-dasharray: none; stroke-linecap: butt; stroke-dashoffset: 0; stroke-linejoin: miter; stroke-miterlimit: 4; fill: rgb(101,181,69); fill-rule: nonzero; opacity: 1;"  transform=" translate(-107.48, -83.59)" d="M 106.87 85.14 a 0.49 0.49 0 0 1 -0.23 -0.48 c 0.72 -0.75 0.7 -1.89 1.44 -2.63 h 0.25 A 7.55 7.55 0 0 1 106.87 85.14 Z" stroke-linecap="round" />
</g>
		<g transform="matrix(1 0 0 1 -53.8 -64.58)" id="Layer_1-2"  >
<path style="stroke: none; stroke-width: 1; stroke-dasharray: none; stroke-linecap: butt; stroke-dashoffset: 0; stroke-linejoin: miter; stroke-miterlimit: 4; fill: rgb(137,197,64); fill-rule: nonzero; opacity: 1;"  transform=" translate(-135.64, -0.18)" d="M 136.84 0.34 l -2.7 0 a 3.72 3.72 0 0 1 3 0 Z" stroke-linecap="round" />
</g>
		<g transform="matrix(1 0 0 1 -48.09 -64.36)" id="Layer_1-2"  >
<path style="stroke: none; stroke-width: 1; stroke-dasharray: none; stroke-linecap: butt; stroke-dashoffset: 0; stroke-linejoin: miter; stroke-miterlimit: 4; fill: rgb(179,211,52); fill-rule: nonzero; opacity: 1;"  transform=" translate(-141.35, -0.4)" d="M 142.57 0.56 c -0.81 -0.1 -1.68 0.28 -2.44 -0.27 h 0 a 2.21 2.21 0 0 1 1.25 0 C 141.79 0.39 142.23 0.26 142.57 0.56 Z" stroke-linecap="round" />
</g>
		<g transform="matrix(1 0 0 1 -77.78 9.8)" id="Layer_1-2"  >
<path style="stroke: none; stroke-width: 1; stroke-dasharray: none; stroke-linecap: butt; stroke-dashoffset: 0; stroke-linejoin: miter; stroke-miterlimit: 4; fill: rgb(105,185,69); fill-rule: nonzero; opacity: 1;"  transform=" translate(-111.66, -74.56)" d="M 111.7 75.15 L 111.35 74 c 0.35 -0.12 0.37 0.33 0.61 0.35 C 112 74.68 112 75 111.7 75.15 Z" stroke-linecap="round" />
</g>
		<g transform="matrix(1 0 0 1 -83.21 -51.78)" id="Layer_1-2"  >
<path style="stroke: none; stroke-width: 1; stroke-dasharray: none; stroke-linecap: butt; stroke-dashoffset: 0; stroke-linejoin: miter; stroke-miterlimit: 4; fill: rgb(155,203,60); fill-rule: nonzero; opacity: 1;"  transform=" translate(-106.23, -12.98)" d="M 106.6 12.72 c -0.07 0.42 -0.35 0.55 -0.74 0.52 C 105.92 12.81 106.22 12.7 106.6 12.72 Z" stroke-linecap="round" />
</g>
		<g transform="matrix(1 0 0 1 -48.68 -64.59)" id="Layer_1-2"  >
<path style="stroke: none; stroke-width: 1; stroke-dasharray: none; stroke-linecap: butt; stroke-dashoffset: 0; stroke-linejoin: miter; stroke-miterlimit: 4; fill: rgb(107,170,67); fill-rule: nonzero; opacity: 1;"  transform=" translate(-140.76, -0.17)" d="M 141.39 0.3 l -1.25 0 A 0.9 0.9 0 0 1 141.39 0.3 Z" stroke-linecap="round" />
</g>
		<g transform="matrix(1 0 0 1 -89.13 -5.3)" id="Layer_1-2"  >
<path style="stroke: none; stroke-width: 1; stroke-dasharray: none; stroke-linecap: butt; stroke-dashoffset: 0; stroke-linejoin: miter; stroke-miterlimit: 4; fill: rgb(117,192,67); fill-rule: nonzero; opacity: 1;"  transform=" translate(-100.31, -59.46)" d="M 86.51 51.84 c 1.44 0.23 2.29 1.52 3.66 2 c 0.71 0.24 1.57 0.64 2.24 0.81 c 1.21 0.29 1.9 1.45 3.33 1.48 c 0.85 0 1.92 0.8 2.85 1.31 c 2.4 1.33 5 2.12 7.44 3.39 s 4.77 2.18 7.06 3.46 c 0.47 0.27 1 0.36 1.49 0.67 s 0.3 0.85 0.45 1.25 c -0.68 0 -0.34 0.68 -0.53 0.91 a 13.4 13.4 0 0 0 -3.7 -2.29 A 51.77 51.77 0 0 1 106 62.6 c -2 -1 -4.2 -1.76 -6.29 -2.66 a 16.79 16.79 0 0 1 -2.75 -1.37 a 21.7 21.7 0 0 0 -4.41 -2 c -2.16 -0.82 -4.16 -1.91 -6.23 -2.88 c -0.49 -0.23 -0.8 -0.52 -0.73 -1.09 v -0.24 C 85.79 52 86 51.7 86.51 51.84 Z" stroke-linecap="round" />
</g>
		<g transform="matrix(1 0 0 1 -102.49 -14.17)" id="Layer_1-2"  >
<path style="stroke: none; stroke-width: 1; stroke-dasharray: none; stroke-linecap: butt; stroke-dashoffset: 0; stroke-linejoin: miter; stroke-miterlimit: 4; fill: rgb(114,191,68); fill-rule: nonzero; opacity: 1;"  transform=" translate(-86.95, -50.59)" d="M 86.51 51.84 c -0.33 0.13 -0.54 0.51 -1 0.48 h -0.48 c 0.81 -1.11 2.16 -1.68 2.88 -2.88 l 0.48 -0.48 c 0.28 -0.17 0.48 -0.16 0.47 0.24 l -0.24 0.48 A 11.57 11.57 0 0 0 86.51 51.84 Z" stroke-linecap="round" />
</g>
		<g transform="matrix(1 0 0 1 -80.94 -42.15)" id="Layer_1-2"  >
<path style="stroke: none; stroke-width: 1; stroke-dasharray: none; stroke-linecap: butt; stroke-dashoffset: 0; stroke-linejoin: miter; stroke-miterlimit: 4; fill: rgb(147,200,62); fill-rule: nonzero; opacity: 1;"  transform=" translate(-108.5, -22.61)" d="M 115 25 c -0.33 0.5 -0.78 0.84 -1.38 0.61 c -0.44 -0.16 -0.53 0.22 -0.78 0.35 c -0.3 -0.19 -0.4 -0.76 -0.77 -0.67 c -1.47 0.36 -2.65 -0.63 -4 -0.74 a 2.1 2.1 0 0 1 -1.35 -0.64 c -1.22 -1.2 -2.62 -2.15 -3.91 -3.24 c -0.4 -0.34 -1 -0.66 -0.75 -1.41 c 1.89 1.62 4.31 2.29 6.5 3.29 S 112.54 25.11 115 25 Z" stroke-linecap="round" />
</g>
		<g transform="matrix(1 0 0 1 -72.85 -30.05)" id="Layer_1-2"  >
<path style="stroke: none; stroke-width: 1; stroke-dasharray: none; stroke-linecap: butt; stroke-dashoffset: 0; stroke-linejoin: miter; stroke-miterlimit: 4; fill: rgb(139,198,63); fill-rule: nonzero; opacity: 1;"  transform=" translate(-116.59, -34.71)" d="M 116.94 35.07 a 1.5 1.5 0 0 1 -0.71 -0.72 A 0.67 0.67 0 0 1 116.94 35.07 Z" stroke-linecap="round" />
</g>
		<g transform="matrix(1 0 0 1 -81.72 -31.02)" id="Layer_1-2"  >
<path style="stroke: none; stroke-width: 1; stroke-dasharray: none; stroke-linecap: butt; stroke-dashoffset: 0; stroke-linejoin: miter; stroke-miterlimit: 4; fill: rgb(135,197,64); fill-rule: nonzero; opacity: 1;"  transform=" translate(-107.72, -33.74)" d="M 106.4 34.35 a 6.74 6.74 0 0 1 2.63 -1.7 a 4 4 0 0 1 -2.39 2.18 A 0.51 0.51 0 0 0 106.4 34.35 Z" stroke-linecap="round" />
</g>
		<g transform="matrix(1 0 0 1 -83.96 -29.83)" id="Layer_1-2"  >
<path style="stroke: none; stroke-width: 1; stroke-dasharray: none; stroke-linecap: butt; stroke-dashoffset: 0; stroke-linejoin: miter; stroke-miterlimit: 4; fill: rgb(135,197,64); fill-rule: nonzero; opacity: 1;"  transform=" translate(-105.48, -34.93)" d="M 105 35.31 c -0.24 -1 0.45 -0.74 1 -0.72 C 105.75 35 105.31 35.11 105 35.31 Z" stroke-linecap="round" />
</g>
		<g transform="matrix(1 0 0 1 -123.78 16.26)" id="Layer_1-2"  >
<path style="stroke: none; stroke-width: 1; stroke-dasharray: none; stroke-linecap: butt; stroke-dashoffset: 0; stroke-linejoin: miter; stroke-miterlimit: 4; fill: rgb(86,167,70); fill-rule: nonzero; opacity: 1;"  transform=" translate(-65.66, -81.02)" d="M 65.68 80.52 l 0.2 1 c -0.13 0 -0.24 0 -0.27 0 C 65.38 81.3 65.34 81 65.68 80.52 Z" stroke-linecap="round" />
</g>
		<g transform="matrix(1 0 0 1 -77.87 -55.27)" id="Layer_1-2"  >
<path style="stroke: none; stroke-width: 1; stroke-dasharray: none; stroke-linecap: butt; stroke-dashoffset: 0; stroke-linejoin: miter; stroke-miterlimit: 4; fill: rgb(155,203,60); fill-rule: nonzero; opacity: 1;"  transform=" translate(-111.57, -9.49)" d="M 111.67 9.91 c -0.28 -0.16 -0.57 -0.33 -0.31 -0.71 c 0.07 -0.09 0.33 -0.17 0.39 -0.12 c 0.32 0.29 0 0.56 -0.08 0.83 Z" stroke-linecap="round" />
</g>
		<g transform="matrix(1 0 0 1 -70.13 -43.59)" id="Layer_1-2"  >
<path style="stroke: none; stroke-width: 1; stroke-dasharray: none; stroke-linecap: butt; stroke-dashoffset: 0; stroke-linejoin: miter; stroke-miterlimit: 4; fill: rgb(147,200,62); fill-rule: nonzero; opacity: 1;"  transform=" translate(-119.31, -21.17)" d="M 118.14 22.61 l -0.24 -0.24 c 0.24 -0.72 1 -1 1.4 -1.51 c 0.28 -0.36 0.75 -0.58 0.76 -1.13 h 0.24 c 0.79 0.2 0.29 0.52 0.06 0.78 c -0.57 0.63 -1.16 1.24 -1.74 1.86 Z" stroke-linecap="round" />
</g>
		<g transform="matrix(1 0 0 1 -83.4 -12.71)" id="Layer_1-2"  >
<path style="stroke: none; stroke-width: 1; stroke-dasharray: none; stroke-linecap: butt; stroke-dashoffset: 0; stroke-linejoin: miter; stroke-miterlimit: 4; fill: rgb(123,193,66); fill-rule: nonzero; opacity: 1;"  transform=" translate(-106.04, -52.05)" d="M 93.94 44.65 c 0 0.78 0.36 1.23 1.15 1.18 a 1.76 1.76 0 0 1 1.33 0.61 c 0.37 0.32 0.59 1.14 1.43 0.56 c 0.28 -0.2 0.6 0.32 0.77 0.6 s 0.55 0.81 1 0.79 c 2.11 -0.09 3.53 1.36 5.19 2.24 a 6 6 0 0 0 2 0.91 c 1.51 0.2 2.49 1.52 3.82 1.89 a 28.78 28.78 0 0 1 4.31 2 c 1.31 0.61 2.85 0.65 4 1.7 a 0.47 0.47 0 0 0 0.2 0.1 c 0.31 0.09 0.62 -0.66 0.86 -0.09 c 0.16 0.4 -0.41 0.61 -0.64 0.91 c 0 0.24 -0.56 0.48 0 0.72 l -0.24 0.24 c -1.15 1.06 -2 -0.1 -3 -0.31 c -1.22 -0.25 -1.86 -1.66 -3.25 -1.4 c -0.11 0 -0.3 -0.11 -0.39 -0.22 c -0.43 -0.53 -0.74 -0.69 -1.08 0.11 c -0.27 0.62 -0.85 0.27 -1.11 0 s 0 -0.5 0.34 -0.61 s 0.12 -0.37 0 -0.53 A 2.48 2.48 0 0 0 109 55 c -1 -0.15 -1.93 -0.81 -3 -0.3 c -0.21 0.09 -0.85 0.16 -0.46 -0.53 c 0.2 -0.35 -0.2 -0.3 -0.36 -0.43 c -2 -1.58 -4.46 -2 -6.63 -3.09 c -1.28 -0.66 -2.46 -1.7 -4.08 -1 c -0.17 0.07 -0.66 0 -0.55 -0.23 c 0.72 -1.42 -0.8 -1.28 -1.26 -1.6 c -0.76 -0.53 -0.73 -0.81 -0.3 -1.48 A 11.08 11.08 0 0 1 93.94 44.65 Z" stroke-linecap="round" />
</g>
		<g transform="matrix(1 0 0 1 -99.59 -16.75)" id="Layer_1-2"  >
<path style="stroke: none; stroke-width: 1; stroke-dasharray: none; stroke-linecap: butt; stroke-dashoffset: 0; stroke-linejoin: miter; stroke-miterlimit: 4; fill: rgb(117,192,67); fill-rule: nonzero; opacity: 1;"  transform=" translate(-89.85, -48.02)" d="M 88.9 49.2 a 0.5 0.5 0 0 0 -0.47 -0.24 c 1 -0.57 1.54 -1.84 2.84 -2.13 C 90.59 47.73 90.19 48.88 88.9 49.2 Z" stroke-linecap="round" />
</g>
		<g transform="matrix(1 0 0 1 -70.51 -6.33)" id="Layer_1-2"  >
<path style="stroke: none; stroke-width: 1; stroke-dasharray: none; stroke-linecap: butt; stroke-dashoffset: 0; stroke-linejoin: miter; stroke-miterlimit: 4; fill: rgb(120,193,67); fill-rule: nonzero; opacity: 1;"  transform=" translate(-118.93, -58.43)" d="M 119.34 58.79 c -0.29 0 -0.61 0.05 -0.82 -0.32 c 0.29 -0.11 0.64 -0.1 0.82 -0.4 Z" stroke-linecap="round" />
</g>
		<g transform="matrix(1 0 0 1 -95.19 -37.06)" id="Layer_1-2"  >
<path style="stroke: none; stroke-width: 1; stroke-dasharray: none; stroke-linecap: butt; stroke-dashoffset: 0; stroke-linejoin: miter; stroke-miterlimit: 4; fill: rgb(135,197,64); fill-rule: nonzero; opacity: 1;"  transform=" translate(-94.25, -27.7)" d="M 94.5 27.66 a 1.27 1.27 0 0 1 -0.34 0.28 c -0.16 0 -0.19 -0.12 -0.12 -0.21 a 1.52 1.52 0 0 1 0.35 -0.26 Z" stroke-linecap="round" />
</g>
		<g transform="matrix(1 0 0 1 -107.13 10.2)" id="Layer_1-2"  >
<path style="stroke: none; stroke-width: 1; stroke-dasharray: none; stroke-linecap: butt; stroke-dashoffset: 0; stroke-linejoin: miter; stroke-miterlimit: 4; fill: rgb(97,176,69); fill-rule: nonzero; opacity: 1;"  transform=" translate(-82.31, -74.96)" d="M 81.71 74.6 a 1.14 1.14 0 0 1 1.2 0.72 A 2.23 2.23 0 0 1 81.71 74.6 Z" stroke-linecap="round" />
</g>
		<g transform="matrix(1 0 0 1 -111.17 12.24)" id="Layer_1-2"  >
<path style="stroke: none; stroke-width: 1; stroke-dasharray: none; stroke-linecap: butt; stroke-dashoffset: 0; stroke-linejoin: miter; stroke-miterlimit: 4; fill: rgb(97,176,69); fill-rule: nonzero; opacity: 1;"  transform=" translate(-78.27, -77)" d="M 78.55 77.06 a 1.14 1.14 0 0 1 -0.34 0.13 c -0.17 0 -0.27 -0.12 -0.18 -0.29 a 0.35 0.35 0 0 1 0.29 -0.08 C 78.39 76.84 78.45 77 78.55 77.06 Z" stroke-linecap="round" />
</g>
		<g transform="matrix(1 0 0 1 -97 9.1)" id="Layer_1-2"  >
<path style="stroke: none; stroke-width: 1; stroke-dasharray: none; stroke-linecap: butt; stroke-dashoffset: 0; stroke-linejoin: miter; stroke-miterlimit: 4; fill: rgb(101,181,69); fill-rule: nonzero; opacity: 1;"  transform=" translate(-92.44, -73.87)" d="M 77.16 65 c 0.26 1.91 1.66 2.52 3.28 2.9 a 8.16 8.16 0 0 1 2.15 1 c 1.25 0.69 2.4 1.71 3.73 2 a 35.32 35.32 0 0 1 4.07 1.74 a 53 53 0 0 1 6.14 2.76 c 1.76 1 3.61 1.63 5.38 2.52 c 1 0.49 1.72 1.42 2.89 1.7 a 14.42 14.42 0 0 0 1.69 0.48 c 0.8 0.09 1.57 0.36 1.59 1.41 c -0.69 0.1 -0.49 1 -1.14 1.22 c -0.09 -0.83 -0.83 -1.08 -1.46 -1.24 a 24.08 24.08 0 0 1 -4.14 -2 c -4.15 -1.89 -8.35 -3.69 -12.41 -5.77 c -3.74 -1.9 -7.81 -3.11 -11.32 -5.5 c -0.68 -0.46 -1 -0.79 -0.71 -1.58 C 77.08 66.18 76.69 65.53 77.16 65 Z" stroke-linecap="round" />
</g>
		<g transform="matrix(1 0 0 1 -66.07 -34.96)" id="Layer_1-2"  >
<path style="stroke: none; stroke-width: 1; stroke-dasharray: none; stroke-linecap: butt; stroke-dashoffset: 0; stroke-linejoin: miter; stroke-miterlimit: 4; fill: rgb(147,200,62); fill-rule: nonzero; opacity: 1;"  transform=" translate(-123.37, -29.8)" d="M 131.8 33.63 c -0.16 0.38 -0.32 1 -0.83 0.61 c -1 -0.82 -2.33 -0.74 -3.41 -1.3 a 95.15 95.15 0 0 0 -8.82 -4.08 a 31.38 31.38 0 0 1 -3.07 -1.75 c -0.86 -0.46 -1 -0.91 -0.16 -1.51 l 0.48 -0.36 c 0.89 1.11 2.3 1.31 3.47 1.89 c 3.77 1.85 7.61 3.56 11.42 5.35 A 1.41 1.41 0 0 1 131.8 33.63 Z" stroke-linecap="round" />
</g>
		<g transform="matrix(1 0 0 1 -70.63 14.02)" id="Layer_1-2"  >
<path style="stroke: none; stroke-width: 1; stroke-dasharray: none; stroke-linecap: butt; stroke-dashoffset: 0; stroke-linejoin: miter; stroke-miterlimit: 4; fill: rgb(11,98,81); fill-rule: nonzero; opacity: 1;"  transform=" translate(-118.81, -78.78)" d="M 101.34 103.51 L 95.63 118 H 75.13 L 109 39.56 h 20.49 l 33 78.4 H 141.21 l -5.6 -14.45 Z m 17.25 -44.13 l -11.43 29 h 22.63 Z" stroke-linecap="round" />
</g>
		<g transform="matrix(1 0 0 1 3.17 13.92)" id="Layer_1-2"  >
<path style="stroke: none; stroke-width: 1; stroke-dasharray: none; stroke-linecap: butt; stroke-dashoffset: 0; stroke-linejoin: miter; stroke-miterlimit: 4; fill: rgb(11,98,81); fill-rule: nonzero; opacity: 1;"  transform=" translate(-192.61, -78.68)" d="M 226 47.4 L 218.49 63 c -8.29 -4.81 -18.7 -8.17 -25.09 -8.17 c -5.15 0 -8.62 1.9 -8.62 5.71 c 0 13.55 41.44 5.82 41.44 34.16 c 0 15.68 -13.89 24 -31.36 24 A 58.46 58.46 0 0 1 159 106.08 l 7.73 -15.34 c 8.06 7.06 20.16 11.76 28.33 11.76 c 6.28 0 10.2 -2.35 10.2 -6.83 c 0 -13.89 -41.44 -5.6 -41.44 -33.38 c 0 -14.45 12.43 -23.63 31.24 -23.63 C 206.4 38.66 217.93 42.13 226 47.4 Z" stroke-linecap="round" />
</g>
		<g transform="matrix(1 0 0 1 70.83 13.95)" id="Layer_1-2"  >
<path style="stroke: none; stroke-width: 1; stroke-dasharray: none; stroke-linecap: butt; stroke-dashoffset: 0; stroke-linejoin: miter; stroke-miterlimit: 4; fill: rgb(11,98,81); fill-rule: nonzero; opacity: 1;"  transform=" translate(-260.27, -78.71)" d="M 293.64 47.4 L 286.14 63 c -8.29 -4.81 -18.7 -8.17 -25.09 -8.17 c -5.15 0 -8.62 1.9 -8.62 5.71 c 0 13.55 41.44 5.82 41.44 34.16 c 0 15.68 -13.89 24 -31.36 24 a 58.42 58.42 0 0 1 -35.84 -12.55 l 7.73 -15.34 c 8.06 7.06 20.16 11.76 28.33 11.76 c 6.27 0 10.19 -2.35 10.19 -6.83 c 0 -13.89 -41.44 -5.6 -41.44 -33.38 c 0 -14.45 12.44 -23.63 31.25 -23.63 C 274 38.66 285.58 42.13 293.64 47.4 Z" stroke-linecap="round" />
</g>
		<g transform="matrix(1 0 0 1 145.74 14.04)" id="Layer_1-2"  >
<path style="stroke: none; stroke-width: 1; stroke-dasharray: none; stroke-linecap: butt; stroke-dashoffset: 0; stroke-linejoin: miter; stroke-miterlimit: 4; fill: rgb(11,98,81); fill-rule: nonzero; opacity: 1;"  transform=" translate(-335.18, -78.8)" d="M 317.72 103.51 L 312 118 H 291.52 l 33.82 -78.4 h 20.5 l 33 78.4 H 357.6 L 352 103.51 Z M 335 59.38 l -11.42 29 h 22.62 Z" stroke-linecap="round" />
</g>
		<g transform="matrix(1 0 0 1 -117.45 53.95)" id="Layer_1-2"  >
<path style="stroke: none; stroke-width: 1; stroke-dasharray: none; stroke-linecap: butt; stroke-dashoffset: 0; stroke-linejoin: miter; stroke-miterlimit: 4; fill: rgb(164,205,57); fill-rule: nonzero; opacity: 1;"  transform=" translate(-71.99, -118.71)" d="M 70.42 108.15 c 1.9 3.08 3.83 6.13 6.89 8.24 s 9 0.81 9.27 0.9 s 1.9 0.66 1.9 0.66 s -4.4 3.52 -7.12 5.54 a 26.53 26.53 0 0 1 -8.5 4.38 c -0.8 0.23 -1.51 0.85 -2.42 0.64 c -0.39 -0.26 -0.67 0 -1 0.22 l -1 0.24 c -0.35 0.31 -0.83 0 -1.18 0.24 l -0.87 0.06 l -0.16 0 a 4.57 4.57 0 0 1 -1 -0.1 a 5 5 0 0 1 -2.86 -1.61 c -1.87 -1.91 -3.72 -3.84 -5.7 -5.65 A 6.14 6.14 0 0 1 56 121 c -0.72 -0.94 -0.67 -1.39 0.25 -2.09 c 1.5 -1.13 2.83 -2.46 4.24 -3.69 a 22.88 22.88 0 0 1 4.23 -2.88 a 6.53 6.53 0 0 0 2.16 -1.86 a 2.31 2.31 0 0 1 1.64 -1.09 C 69.37 109.3 69.58 108.24 70.42 108.15 Z" stroke-linecap="round" />
</g>
		<g transform="matrix(1 0 0 1 -172.55 -4.16)" id="Layer_1-2"  >
<path style="stroke: none; stroke-width: 1; stroke-dasharray: none; stroke-linecap: butt; stroke-dashoffset: 0; stroke-linejoin: miter; stroke-miterlimit: 4; fill: rgb(77,158,69); fill-rule: nonzero; opacity: 1;"  transform=" translate(-16.89, -60.6)" d="M 11.21 69.9 c -2 -2.69 -3.7 -5.57 -5.88 -8.12 C 3.84 60 2.32 58.31 0.67 56.71 C 0.45 56.49 0.26 56.26 0 56 a 74.82 74.82 0 0 1 11.05 -3.81 A 44.92 44.92 0 0 1 23.32 50.8 a 28.92 28.92 0 0 1 10.46 2.27 A 41.7 41.7 0 0 1 30.59 56 c -2.55 1.9 -5.11 3.8 -7.6 5.79 c -1.83 1.46 -3.83 2.72 -5.59 4.26 s -3.6 2.5 -5.07 4.14 C 11.77 70.79 11.58 70 11.21 69.9 Z" stroke-linecap="round" />
</g>
		<g transform="matrix(1 0 0 1 -151.28 18.32)" id="Layer_1-2"  >
<path style="stroke: none; stroke-width: 1; stroke-dasharray: none; stroke-linecap: butt; stroke-dashoffset: 0; stroke-linejoin: miter; stroke-miterlimit: 4; fill: rgb(110,190,69); fill-rule: nonzero; opacity: 1;"  transform=" translate(-38.16, -83.08)" d="M 23.28 94.24 c -0.25 -0.48 -0.67 -0.87 -0.72 -1.44 c 0.34 -0.76 0.84 -0.8 1.39 -0.25 c 0.3 0.29 0.59 0.58 1 0.92 c -0.48 -0.61 -1.09 -1 -1.42 -1.57 c -0.21 -0.4 -0.37 -0.76 0.19 -1.1 c 1.64 -1 3.14 -2.23 4.68 -3.39 c 2.39 -1.79 4.46 -4 7.06 -5.5 c 1.44 -0.84 2.47 -2.25 3.87 -3.18 a 71.56 71.56 0 0 0 6.82 -5 a 26.18 26.18 0 0 1 4.78 -3.32 c 0.42 -0.22 0.16 -0.81 0.65 -0.91 a 10.27 10.27 0 0 1 1.84 2.72 a 0.8 0.8 0 0 0 0.34 0.92 v 0 A 7.16 7.16 0 0 1 51 75.55 a 6.83 6.83 0 0 0 -1.23 0.72 c -1.87 1.82 -4.17 3.08 -6.14 4.75 c -3.66 3.13 -7.65 5.85 -11.35 8.93 c -1.16 1 -2.5 1.69 -3.71 2.6 a 4.85 4.85 0 0 0 -0.81 0.69 c -0.95 1.11 -0.95 1.1 0 2.26 c 0.1 0.13 0.21 0.25 0.29 0.38 s 0.27 0.44 0.09 0.66 s -0.51 0.1 -0.76 0 a 2.49 2.49 0 0 1 -0.66 -0.51 c -0.53 -0.53 -1 -1.19 -1.84 -0.36 c -0.24 0.24 -0.5 0 -0.71 -0.22 S 23.62 94.59 23.28 94.24 Z" stroke-linecap="round" />
</g>
		<g transform="matrix(1 0 0 1 -141.28 37.06)" id="Layer_1-2"  >
<path style="stroke: none; stroke-width: 1; stroke-dasharray: none; stroke-linecap: butt; stroke-dashoffset: 0; stroke-linejoin: miter; stroke-miterlimit: 4; fill: rgb(139,198,63); fill-rule: nonzero; opacity: 1;"  transform=" translate(-48.16, -101.82)" d="M 62.3 90.18 c 0.11 1 0.91 1.82 1 2.86 c -0.46 0.81 -1.34 1.11 -2.05 1.57 a 6.73 6.73 0 0 0 -1.86 1.46 a 15 15 0 0 1 -3.78 3.22 a 25.27 25.27 0 0 0 -3.54 2.56 c -0.72 0.69 -1.22 1.71 -2.44 1.73 c -0.17 0 -0.31 0.24 -0.4 0.42 a 4.19 4.19 0 0 1 -2.49 1.9 c -1.27 0.48 -2 1.69 -3 2.53 c -0.18 0.14 -0.27 0.39 -0.47 0.54 c -1 0.75 -1 0.76 -0.05 1.64 a 3.53 3.53 0 0 1 0.79 0.89 c 0.2 0.38 0.07 0.6 -0.35 0.66 a 2 2 0 0 1 -1.12 -0.49 a 8 8 0 0 0 -1 -0.85 a 1 1 0 0 0 -1.41 0.09 a 13.05 13.05 0 0 0 -1.61 1.55 c -0.51 0.72 -1.56 0.81 -2.32 1.31 c -0.38 0.25 -0.71 0.29 -0.7 0.86 s -0.28 0.75 -0.8 0.47 a 5.37 5.37 0 0 1 -1.64 -2.19 c -0.27 -1.82 0.82 -2.78 2.28 -3.37 c 1 -0.42 1.45 -1.54 2.44 -2 a 1.26 1.26 0 0 1 0.64 0.24 c 0.71 0.47 1.38 1 2.09 1.51 a 10.65 10.65 0 0 1 -0.94 -0.72 a 1.61 1.61 0 0 1 0.25 -2.82 c 0.94 -0.52 1.65 -1.41 2.75 -1.65 a 0.69 0.69 0 0 0 0.38 -0.28 c 1.93 -2.69 5.13 -3.85 7.41 -6.07 c 1.82 -1.76 4.11 -2.82 5.9 -4.56 a 13.23 13.23 0 0 1 2.54 -2 c 1 -0.6 2.19 -1.27 2.26 -2.74 a 0.32 0.32 0 0 1 0.3 0 c 0.29 0.24 0.1 0.74 0.5 0.93 S 62.12 89.94 62.3 90.18 Z" stroke-linecap="round" />
</g>
		<g transform="matrix(1 0 0 1 -153.37 15.81)" id="Layer_1-2"  >
<path style="stroke: none; stroke-width: 1; stroke-dasharray: none; stroke-linecap: butt; stroke-dashoffset: 0; stroke-linejoin: miter; stroke-miterlimit: 4; fill: rgb(105,185,69); fill-rule: nonzero; opacity: 1;"  transform=" translate(-36.07, -80.57)" d="M 51.56 69.49 c 0.12 0.78 -0.22 1 -0.93 1.37 a 20.35 20.35 0 0 0 -3.83 2.71 a 32.64 32.64 0 0 1 -4.56 3.53 c -2 1.34 -3.91 2.86 -5.83 4.33 c -2.1 1.61 -4.17 3.27 -6.26 4.89 c -1 0.81 -2 1.73 -3 2.49 a 9.61 9.61 0 0 0 -2.6 2.1 c -0.26 0.36 -0.68 0 -1 0.23 c 0.17 1.27 1.61 1.59 2 2.74 c -0.86 0.23 -1.34 -0.53 -1.58 -0.93 c -0.51 -0.83 -0.89 -0.55 -1.4 -0.15 l 0 -0.47 c 0.23 -0.43 -0.34 -0.55 -0.35 -0.91 c 0 -0.14 -0.15 -0.2 -0.06 -0.07 s -0.06 0.05 -0.09 0.08 a 13.57 13.57 0 0 1 -1.43 -3.12 a 0.67 0.67 0 0 1 -0.06 -0.5 c 0.76 0.14 0.76 0.14 0.9 0.92 a 50.73 50.73 0 0 1 5.07 -4 c 0.74 -0.6 1.52 -1.17 2.26 -1.77 c 3.62 -2.92 7.44 -5.59 11.08 -8.5 c 2.69 -2.15 5.36 -4.38 8.25 -6.29 a 4.25 4.25 0 0 1 2 -0.95 A 5.16 5.16 0 0 1 51.56 69.49 Z" stroke-linecap="round" />
</g>
		<g transform="matrix(1 0 0 1 -150.17 21.01)" id="Layer_1-2"  >
<path style="stroke: none; stroke-width: 1; stroke-dasharray: none; stroke-linecap: butt; stroke-dashoffset: 0; stroke-linejoin: miter; stroke-miterlimit: 4; fill: rgb(115,191,68); fill-rule: nonzero; opacity: 1;"  transform=" translate(-39.27, -85.77)" d="M 23.28 94.24 c 0.43 -0.24 0.36 0.17 0.52 0.35 s 0.3 0.94 0.82 0.91 s 0.46 -0.59 0.7 -0.9 c 1 0.4 1.49 1.54 2.71 2 A 4.47 4.47 0 0 0 26.75 95 c -0.41 -0.38 -0.28 -0.58 0 -1 a 7.41 7.41 0 0 1 2.93 -2.59 c 1.5 -0.83 2.65 -2.07 4 -3 c 2.83 -1.86 5.3 -4.18 8.05 -6.16 c 1.55 -1.11 2.94 -2.49 4.54 -3.54 c 1.35 -0.87 2.33 -2.2 3.72 -2.92 a 35.44 35.44 0 0 0 3.73 -2.66 c 0.2 0 0.41 0 0.39 0.31 c 0 0.8 0.57 1.3 1 1.9 l 0 0.22 c 0.33 0.8 0.12 1.08 -0.73 1.52 a 22.42 22.42 0 0 0 -4.24 2.87 c -2.1 1.77 -4.41 3.26 -6.45 5.09 c -2.82 2.53 -6 4.54 -8.95 7 c -1.5 1.26 -3.19 2.34 -4.67 3.65 a 11.32 11.32 0 0 1 -3.68 2.52 c -0.81 0.29 -1 0.3 -1.4 -0.34 a 0.67 0.67 0 0 0 -0.27 -0.23 A 19.57 19.57 0 0 1 23.28 94.24 Z" stroke-linecap="round" />
</g>
		<g transform="matrix(1 0 0 1 -144.72 31.04)" id="Layer_1-2"  >
<path style="stroke: none; stroke-width: 1; stroke-dasharray: none; stroke-linecap: butt; stroke-dashoffset: 0; stroke-linejoin: miter; stroke-miterlimit: 4; fill: rgb(131,195,65); fill-rule: nonzero; opacity: 1;"  transform=" translate(-44.72, -95.8)" d="M 38.34 107.9 a 0.47 0.47 0 0 1 -0.48 -0.24 a 6 6 0 0 1 -2.1 -1.32 c -0.3 -0.25 -0.71 -0.67 -1 -0.26 a 2.86 2.86 0 0 1 -1.93 1 a 0.89 0.89 0 0 0 -0.77 1.14 a 1.39 1.39 0 0 1 0 0.7 c -0.19 0.64 -0.49 0.93 -1 0.3 a 1.23 1.23 0 0 0 -0.45 -0.37 a 10.22 10.22 0 0 1 -1.29 -2.36 c -0.08 -0.1 -0.11 -0.32 -0.08 -0.32 c 0.52 0 0.37 -0.32 0.31 -0.65 c -0.21 -1 0 -1.29 1.08 -1.27 a 3.8 3.8 0 0 0 1.86 -0.29 a 1.33 1.33 0 0 1 1.76 0.13 c -0.72 -0.4 -0.61 -1.08 0 -1.79 a 8.71 8.71 0 0 0 1 -1.63 a 74.32 74.32 0 0 0 6.63 -4.87 c 1.61 -1.34 3.36 -2.5 5 -3.8 a 92.72 92.72 0 0 1 8.51 -6.53 c 1 -0.61 1.56 -1.69 2.62 -2.25 c 0.4 -0.22 -0.22 -1.08 0.59 -1.19 c 0.3 0.8 0.94 1.47 1 2.39 c -0.16 0.62 0.48 0.94 0.55 1.48 s 0.19 1 -0.42 1 c -1.46 0.15 -2.29 1.23 -3.21 2.12 a 13.42 13.42 0 0 1 -2 1.74 c -2.14 1.4 -4.07 3.06 -6.1 4.59 a 45.94 45.94 0 0 0 -3.83 3 a 15.53 15.53 0 0 1 -2.1 1.34 A 34.73 34.73 0 0 0 37.74 104 c -0.39 0.38 -1.34 0.37 -1.14 1.15 c 0.15 0.55 0.81 0.85 1.2 1.3 s 0.89 0.7 1.07 1.26 c 0.07 0.21 0.08 0.42 -0.17 0.48 S 38.43 108 38.34 107.9 Z" stroke-linecap="round" />
</g>
		<g transform="matrix(1 0 0 1 -140.72 32.42)" id="Layer_1-2"  >
<path style="stroke: none; stroke-width: 1; stroke-dasharray: none; stroke-linecap: butt; stroke-dashoffset: 0; stroke-linejoin: miter; stroke-miterlimit: 4; fill: rgb(135,197,64); fill-rule: nonzero; opacity: 1;"  transform=" translate(-48.72, -97.18)" d="M 38.34 107.9 c 0.84 0.24 0.35 -0.22 0.18 -0.39 c -0.72 -0.74 -1.44 -1.47 -2.21 -2.15 c -0.48 -0.42 -0.47 -0.83 0.08 -1 A 6.07 6.07 0 0 0 39.32 102 a 18.34 18.34 0 0 1 2.35 -2.1 c 1.35 -1.2 3 -2.06 4.4 -3.22 c 1.71 -1.39 3.52 -2.68 5.31 -4 a 50.47 50.47 0 0 0 6.39 -5.28 a 1.86 1.86 0 0 1 1.33 -0.7 c 1.14 0.09 0.7 -0.53 0.57 -1.05 s -0.83 -0.68 -0.23 -1.21 c 0.77 0.55 0.66 1.57 1.21 2.24 a 5.87 5.87 0 0 1 0.43 0.67 c 0.35 0.33 0.55 0.69 0.27 1.16 c 0 0 -0.09 0.05 -0.09 0.08 c 0 2 -1.71 2.5 -3 3.32 a 4.42 4.42 0 0 0 -0.82 0.68 A 14.31 14.31 0 0 1 52.75 96 c -0.72 0.32 -0.72 1.07 -1.32 1.45 c -2.28 1.47 -4.31 3.29 -6.63 4.72 a 1.23 1.23 0 0 0 -0.47 0.36 c -1 1.83 -2.89 2.51 -4.53 3.52 a 1.34 1.34 0 0 0 0 2.33 a 6.23 6.23 0 0 1 1.49 1.54 A 7.37 7.37 0 0 1 38.34 107.9 Z" stroke-linecap="round" />
</g>
		<g transform="matrix(1 0 0 1 -163.13 0.73)" id="Layer_1-2"  >
<path style="stroke: none; stroke-width: 1; stroke-dasharray: none; stroke-linecap: butt; stroke-dashoffset: 0; stroke-linejoin: miter; stroke-miterlimit: 4; fill: rgb(86,167,70); fill-rule: nonzero; opacity: 1;"  transform=" translate(-26.31, -65.49)" d="M 14.82 76.33 l -2.31 -4.14 c 0.66 -0.61 0.79 0.24 1.21 0.39 c 0.16 -0.32 0.37 -0.76 0.77 -0.86 c 1.61 -0.42 2.48 -2 4 -2.52 a 2 2 0 0 0 0.78 -0.72 c 0.64 -0.81 1.15 -1.77 2.36 -1.82 c 1 -1.59 3.18 -1.81 4.2 -3.41 A 3.32 3.32 0 0 1 27.38 62 a 4.69 4.69 0 0 0 2.44 -2 a 2.75 2.75 0 0 1 1.78 -1.33 a 4.7 4.7 0 0 0 2.19 -1.54 c 0.91 -0.93 1.55 -2.15 2.87 -2.63 A 12 12 0 0 1 40 56.68 c 0.33 0.78 -0.21 1.15 -0.73 1.5 a 66.32 66.32 0 0 0 -7.89 6.16 c -1.71 1.55 -3.78 2.61 -5.53 4.12 S 22 71.36 20.13 73 c -1 0.85 -2.2 1.29 -3.17 2.12 c -0.38 0.33 -0.87 0.48 -1.07 1.05 S 15.21 76.38 14.82 76.33 Z" stroke-linecap="round" />
</g>
		<g transform="matrix(1 0 0 1 -160.56 3.33)" id="Layer_1-2"  >
<path style="stroke: none; stroke-width: 1; stroke-dasharray: none; stroke-linecap: butt; stroke-dashoffset: 0; stroke-linejoin: miter; stroke-miterlimit: 4; fill: rgb(89,171,70); fill-rule: nonzero; opacity: 1;"  transform=" translate(-28.88, -68.09)" d="M 14.82 76.33 c 1 -0.21 1.33 -1.24 2.2 -1.68 a 44 44 0 0 0 5.51 -3.91 c 1.71 -1.23 3.24 -2.7 5 -3.86 c 2.91 -1.93 5.34 -4.44 8.19 -6.44 a 20.07 20.07 0 0 1 3.77 -2.67 A 1.08 1.08 0 0 0 40 56.68 A 11.15 11.15 0 0 1 42.93 59 c -0.64 1.48 -2.2 2 -3.28 3 S 36.8 63.43 36.1 65 a 0.84 0.84 0 0 1 -0.69 0.43 c -0.52 0.07 -0.87 0.25 -1 0.85 s -0.74 0.82 -1.26 1 a 3 3 0 0 0 -1.85 1.22 c -0.74 1.14 -2.18 1.24 -3 2.22 a 14.17 14.17 0 0 1 -3.67 2.75 a 24.93 24.93 0 0 0 -3.94 3.24 a 30.47 30.47 0 0 1 -3.45 2.66 c -0.64 0.42 -0.8 -0.24 -1.15 -0.46 A 14.37 14.37 0 0 1 14.82 76.33 Z" stroke-linecap="round" />
</g>
		<g transform="matrix(1 0 0 1 -148.66 23.53)" id="Layer_1-2"  >
<path style="stroke: none; stroke-width: 1; stroke-dasharray: none; stroke-linecap: butt; stroke-dashoffset: 0; stroke-linejoin: miter; stroke-miterlimit: 4; fill: rgb(119,192,67); fill-rule: nonzero; opacity: 1;"  transform=" translate(-40.78, -88.29)" d="M 24.75 97.59 c 0.71 -0.24 0.51 0.71 1 0.69 c 0.41 -0.87 1.4 -0.75 2.15 -1.08 c 0.21 -0.09 0.57 0.19 0.65 -0.09 c 0.63 -2.07 2.62 -2.89 4.1 -4 c 2.55 -1.85 4.93 -3.93 7.57 -5.69 a 64.49 64.49 0 0 0 5.46 -4.37 c 1 -0.84 2.23 -1.44 3.12 -2.32 c 1.47 -1.43 3.3 -2.3 4.81 -3.62 c 0.46 -0.41 0.87 -0.78 1.55 -0.5 c 0 -0.45 -0.61 -0.77 0 -1.11 a 6.39 6.39 0 0 1 1.46 2.87 c 0 0.53 0.74 1.62 -0.76 0.9 c -0.28 -0.13 -0.38 0.22 -0.55 0.36 c -2.77 2.22 -5.32 4.68 -7.87 7.14 q -3 2.89 -6.2 5.6 l -0.37 0.31 c -0.36 0.32 -0.67 0.68 -1 1 c -1.18 0.74 -2.17 1.73 -3.29 2.55 a 3.75 3.75 0 0 0 -0.81 0.73 a 10.15 10.15 0 0 1 -1.27 0.76 c -0.29 0.06 -0.59 0 -0.72 -0.24 s 0.07 -0.63 0.33 -0.81 c 0.72 -0.51 1.37 -1.1 2.07 -1.61 a 74.16 74.16 0 0 0 8.33 -7.3 c 0.28 -0.27 0.71 -0.36 0.91 -0.84 c -1 0.21 -1 1.21 -1.64 1.66 A 15 15 0 0 1 41.82 90 c -1.64 0.84 -2.61 2.68 -4.54 3.11 c -0.62 1.28 -2 1.59 -3 2.48 a 1.51 1.51 0 0 1 -1.41 0.45 A 3.13 3.13 0 0 0 30 97.15 a 7.34 7.34 0 0 0 -2.35 3.49 c -0.17 0.81 -0.84 0.25 -1.31 0.15 A 24.31 24.31 0 0 1 24.75 97.59 Z" stroke-linecap="round" />
</g>
		<g transform="matrix(1 0 0 1 -157.66 8.52)" id="Layer_1-2"  >
<path style="stroke: none; stroke-width: 1; stroke-dasharray: none; stroke-linecap: butt; stroke-dashoffset: 0; stroke-linejoin: miter; stroke-miterlimit: 4; fill: rgb(98,178,70); fill-rule: nonzero; opacity: 1;"  transform=" translate(-31.78, -73.28)" d="M 45.07 61.14 a 3.91 3.91 0 0 1 1.44 1.47 a 2.23 2.23 0 0 1 -1 2.6 c -4 3.07 -8.15 6.09 -12.22 9.13 c -2.52 1.88 -4.82 4 -7.39 5.83 c -1.79 1.24 -3.17 3.06 -5.36 3.71 c -0.68 0.2 -0.38 0.89 -0.66 1.3 c -0.55 0.69 -0.52 -0.39 -0.87 -0.29 l -2 -4.25 c -0.11 -0.34 -0.16 -0.75 0.36 -0.41 a 1.78 1.78 0 0 1 0.74 1.29 a 22.74 22.74 0 0 1 2.31 -1.81 c 3.68 -2.77 7.33 -5.59 11 -8.42 c 1.47 -1.15 3 -2.27 4.45 -3.42 A 39.3 39.3 0 0 1 39.5 65.1 A 43.15 43.15 0 0 0 43.65 62 C 44.08 61.61 44.43 61.12 45.07 61.14 Z" stroke-linecap="round" />
</g>
		<g transform="matrix(1 0 0 1 -134.09 48.03)" id="Layer_1-2"  >
<path style="stroke: none; stroke-width: 1; stroke-dasharray: none; stroke-linecap: butt; stroke-dashoffset: 0; stroke-linejoin: miter; stroke-miterlimit: 4; fill: rgb(155,203,60); fill-rule: nonzero; opacity: 1;"  transform=" translate(-55.35, -112.79)" d="M 66.83 101 c 0.59 1.19 1.18 2.37 1.76 3.57 c 0.16 0.31 0.27 0.65 0.41 1 a 14 14 0 0 1 -3.8 3.21 a 23.2 23.2 0 0 0 -4.49 3.5 a 71.84 71.84 0 0 1 -6.27 4.72 c -1.15 0.83 -1.21 1.09 -0.12 2 a 5.37 5.37 0 0 1 0.81 0.69 c 0.31 0.4 0.47 0.78 -0.17 1 a 1.32 1.32 0 0 1 -0.65 -0.18 c -2.24 -1.72 -2.06 -2.29 -4.63 0.26 c -1 1 -2.56 1.44 -3.51 2.63 c -0.22 0.28 -0.55 0.47 -0.71 0.8 c -0.27 0.57 -0.68 0.56 -1.16 0.29 c -1.09 -0.26 -1.76 -1.14 -2.6 -1.77 c 0 -0.38 0.25 -0.33 0.47 -0.32 s 0.54 0 0.64 -0.34 a 4.91 4.91 0 0 1 3.08 -3.34 c 1 -0.44 1.37 -1.48 2.25 -2 c 1.18 -0.78 1.37 -0.9 2.48 0 a 14.89 14.89 0 0 1 1.3 1.16 A 3.07 3.07 0 0 0 51 117 c -1.12 -0.93 -1.14 -1.3 0 -2.22 a 25.91 25.91 0 0 1 4.87 -3.56 a 5.83 5.83 0 0 0 1.64 -1.49 c 0.68 -0.77 1.77 -1.12 2.15 -2.17 c 0.08 -0.22 0.34 -0.33 0.56 -0.42 a 14.08 14.08 0 0 0 4.22 -3 a 1.44 1.44 0 0 1 1.12 -0.34 c 1 0 1.05 -0.49 0.88 -1.29 c -0.12 -0.5 -0.58 -1 0 -1.55 A 0.29 0.29 0 0 1 66.83 101 Z" stroke-linecap="round" />
</g>
		<g transform="matrix(1 0 0 1 -165.49 -1.61)" id="Layer_1-2"  >
<path style="stroke: none; stroke-width: 1; stroke-dasharray: none; stroke-linecap: butt; stroke-dashoffset: 0; stroke-linejoin: miter; stroke-miterlimit: 4; fill: rgb(81,162,69); fill-rule: nonzero; opacity: 1;"  transform=" translate(-23.95, -63.15)" d="M 36.66 54.5 c -1.2 1.28 -2.45 2.52 -3.58 3.86 c -0.57 0.66 -1.38 0.45 -2 0.83 c -1.06 0.61 -1.14 2.05 -2.35 2.43 c -2.09 0.65 -3.06 2.78 -4.93 3.73 c -0.66 0.33 -1.63 0.4 -1.6 1.5 c 0 0.08 -0.27 0.26 -0.36 0.23 c -1.18 -0.39 -1.49 0.59 -2 1.23 s -0.86 1.33 -1.78 1.41 a 1 1 0 0 0 -0.59 0.39 a 5.2 5.2 0 0 1 -2.59 1.76 a 1.3 1.3 0 0 0 -1 1.36 c -0.46 -0.43 -0.65 -1.06 -1.34 -1 a 9.6 9.6 0 0 1 -1.3 -2.29 c 1.09 0.46 1.51 -0.6 2.15 -1.05 c 0.42 -0.29 0.77 -0.76 1.22 -1.1 c 2.17 -1.63 4.24 -3.42 6.49 -4.93 c 1.48 -1 2.76 -2.22 4.24 -3.21 A 66.32 66.32 0 0 0 31.4 54.9 c 0.77 -0.66 1.6 -1.2 2.38 -1.83 a 5.87 5.87 0 0 1 1.77 0.88 a 2.4 2.4 0 0 0 0.87 0.52 Z" stroke-linecap="round" />
</g>
		<g transform="matrix(1 0 0 1 -158.86 5.62)" id="Layer_1-2"  >
<path style="stroke: none; stroke-width: 1; stroke-dasharray: none; stroke-linecap: butt; stroke-dashoffset: 0; stroke-linejoin: miter; stroke-miterlimit: 4; fill: rgb(94,174,70); fill-rule: nonzero; opacity: 1;"  transform=" translate(-30.58, -70.38)" d="M 45.07 61.14 c -2.13 1.78 -4.5 3.28 -6.63 5 c -4.1 3.34 -8.36 6.48 -12.52 9.73 a 61.29 61.29 0 0 1 -7.38 5.51 a 2.55 2.55 0 0 0 -0.45 0.43 a 10.21 10.21 0 0 0 -0.83 -1.39 c -0.28 -0.35 -0.2 0.1 -0.27 0.2 c -0.28 -0.59 -0.81 -1 -0.9 -1.73 c 0.83 0.7 1.35 -0.06 1.89 -0.46 a 8.31 8.31 0 0 0 2.45 -2.09 a 3.06 3.06 0 0 1 1.29 -0.92 a 6.86 6.86 0 0 0 1.56 -1.25 c 0.65 -0.6 1.13 -1.34 2.18 -1.47 s 1.4 -1 2.07 -1.62 s 1 -1.59 2.11 -1.57 c 0.38 0 0.59 -0.38 0.85 -0.62 c 0.89 -0.86 1.63 -1.93 3 -2.1 c 0.3 0 0.87 -0.13 0.71 -0.61 c -0.38 -1.14 0.38 -0.93 1 -1 a 0.85 0.85 0 0 0 0.88 -0.67 a 1.76 1.76 0 0 1 1.07 -1.34 a 17.79 17.79 0 0 0 3.65 -2.74 c 0.23 -0.24 0.47 -0.16 0.76 -0.13 s 0.59 0 0.33 -0.56 c -0.16 -0.34 0.69 -0.48 1 -0.8 a 4.31 4.31 0 0 1 1.46 1.42 a 0.55 0.55 0 0 0 0.45 0.45 Z" stroke-linecap="round" />
</g>
		<g transform="matrix(1 0 0 1 -136.33 46.73)" id="Layer_1-2"  >
<path style="stroke: none; stroke-width: 1; stroke-dasharray: none; stroke-linecap: butt; stroke-dashoffset: 0; stroke-linejoin: miter; stroke-miterlimit: 4; fill: rgb(151,201,61); fill-rule: nonzero; opacity: 1;"  transform=" translate(-53.11, -111.49)" d="M 66.62 101 c -0.39 0.82 0.34 1.53 0.3 2.36 c 0 0.32 0.32 0.48 -0.25 0.54 c -2 0.21 -3.29 1.49 -4.57 2.85 c -0.41 0.44 -1.13 0.19 -1.63 0.62 c -0.29 0.24 -0.74 0.24 -0.71 0.78 c 0 0.14 -0.11 0.41 -0.19 0.41 c -1.16 0.11 -1.55 1.24 -2.22 1.86 a 15 15 0 0 1 -2.59 1.87 c -1.25 0.74 -2.18 1.79 -3.33 2.6 c -1.36 1 -1.32 1 0 2 a 3.83 3.83 0 0 1 1.2 1.34 c -0.62 0.18 -0.91 -0.16 -1.22 -0.45 l -1 -1 c -0.73 -0.66 -1.28 -0.67 -2.08 0.11 c -1 1 -1.76 2.4 -3.41 2.53 c -0.22 1.12 -1.88 1.23 -1.75 2.7 c 0.11 1.2 -1 0.21 -1.45 0.58 c -0.63 -0.64 -1.61 -0.91 -2 -1.86 c 0.06 -0.13 0.25 0 0.31 -0.16 c -0.1 0 -0.23 0.07 -0.3 0.17 s -0.41 0 -0.47 -0.24 a 0.25 0.25 0 0 1 0.12 -0.39 a 18.08 18.08 0 0 0 4.56 -3 A 6.49 6.49 0 0 0 45.21 116 a 2.44 2.44 0 0 1 2.92 -0.95 c 0.06 -0.05 0.34 0.18 0.18 -0.13 s -0.29 -0.34 -0.28 -0.59 c 0.14 -0.62 0.68 -0.87 1.11 -1.2 c 2.76 -2.07 5.43 -4.26 8.28 -6.21 c 1.82 -1.25 3.48 -2.7 5.28 -4 c 1.23 -0.88 2.5 -1.72 3.69 -2.67 h 0 A 1.38 1.38 0 0 1 66.62 101 Z" stroke-linecap="round" />
</g>
		<g transform="matrix(1 0 0 1 -154.12 12.24)" id="Layer_1-2"  >
<path style="stroke: none; stroke-width: 1; stroke-dasharray: none; stroke-linecap: butt; stroke-dashoffset: 0; stroke-linejoin: miter; stroke-miterlimit: 4; fill: rgb(103,182,69); fill-rule: nonzero; opacity: 1;"  transform=" translate(-35.32, -77)" d="M 50.06 67.18 c -2.17 1.53 -4.37 3 -6.45 4.67 c -3.62 2.89 -7.22 5.81 -11 8.52 c -2.66 1.91 -5.2 4 -7.81 6 c -1.14 0.87 -2.55 1.42 -3.4 2.87 c -0.1 -0.74 -0.28 -1.21 -0.82 -1.44 a 3.88 3.88 0 0 1 2.14 -3.16 a 26.34 26.34 0 0 0 5.46 -3.83 a 66.67 66.67 0 0 1 6.58 -5.16 c 2.56 -1.77 4.89 -3.82 7.27 -5.8 c 0.91 -0.75 2 -1.22 2.9 -1.9 a 7.9 7.9 0 0 0 2.73 -2.78 c 0.18 -0.24 0.35 -0.49 0.72 -0.37 Z" stroke-linecap="round" />
</g>
		<g transform="matrix(1 0 0 1 -134.41 60.02)" id="Layer_1-2"  >
<path style="stroke: none; stroke-width: 1; stroke-dasharray: none; stroke-linecap: butt; stroke-dashoffset: 0; stroke-linejoin: miter; stroke-miterlimit: 4; fill: rgb(164,205,57); fill-rule: nonzero; opacity: 1;"  transform=" translate(-55.03, -124.78)" d="M 54.39 120.36 a 0.51 0.51 0 0 1 0.48 0.24 a 17.13 17.13 0 0 1 3.59 2.92 c 1.35 1.16 2.52 2.53 3.86 3.71 a 3.84 3.84 0 0 1 0.82 1 c 0.2 0.33 0.43 0.74 -0.19 0.95 c -1.86 0.09 -3.72 -0.06 -5.58 0.08 a 0.44 0.44 0 0 1 -0.4 0 l -0.62 0 c -0.35 -0.27 -0.82 0.05 -1.17 -0.24 c -1.23 -0.63 -2.66 -0.39 -3.93 -0.94 c -1.53 -0.67 -3.23 -1 -4.54 -2.14 c 0.09 -0.63 0.47 -0.44 0.83 -0.29 s 0.58 0.22 0.64 -0.21 c 0.1 -0.79 0.74 -1.08 1.27 -1.46 c 1.42 -1 2.58 -2.34 4 -3.32 C 53.76 120.42 54 120.09 54.39 120.36 Z" stroke-linecap="round" />
</g>
		<g transform="matrix(1 0 0 1 -143.01 25.87)" id="Layer_1-2"  >
<path style="stroke: none; stroke-width: 1; stroke-dasharray: none; stroke-linecap: butt; stroke-dashoffset: 0; stroke-linejoin: miter; stroke-miterlimit: 4; fill: rgb(126,194,66); fill-rule: nonzero; opacity: 1;"  transform=" translate(-46.43, -90.63)" d="M 58.47 82 c 0.19 1.17 -0.67 1.66 -1.42 2.25 c -1.83 1.42 -3.6 2.92 -5.48 4.26 c -0.74 0.53 -1.4 1.13 -2.1 1.7 c -2 1.69 -4.34 3.11 -6.33 4.84 s -4.74 3.09 -6.73 5.13 c -0.27 0.29 -0.79 0.34 -1.19 0.51 a 3.11 3.11 0 0 1 -0.86 -1.46 c 1 -1 2 -1.84 3.08 -2.7 c 1.83 -1.49 3.89 -2.7 5.5 -4.47 a 1.12 1.12 0 0 1 0.29 -0.19 c 1.08 -0.19 1.67 -1.15 2.49 -1.72 a 11.61 11.61 0 0 0 2.92 -2.5 a 3.49 3.49 0 0 1 3.06 -2.36 a 0.64 0.64 0 0 0 0.53 -0.39 a 7.78 7.78 0 0 1 3.56 -3 c 0.77 -0.34 1.27 -1 2 -1.34 C 58 81.09 58.43 81.45 58.47 82 Z" stroke-linecap="round" />
</g>
		<g transform="matrix(1 0 0 1 -153.34 30.52)" id="Layer_1-2"  >
<path style="stroke: none; stroke-width: 1; stroke-dasharray: none; stroke-linecap: butt; stroke-dashoffset: 0; stroke-linejoin: miter; stroke-miterlimit: 4; fill: rgb(121,193,67); fill-rule: nonzero; opacity: 1;"  transform=" translate(-36.1, -95.28)" d="M 26.32 100.79 a 3 3 0 0 1 0.09 -0.33 c 0.7 0.13 0.59 0.08 0.83 -0.38 a 7 7 0 0 1 0.94 -1.51 c 1.07 -1 2 -2.72 3.56 -2.72 a 6.79 6.79 0 0 0 3.77 -1.39 c 0.48 -0.3 1 -0.48 1.17 -1.11 c 0.27 -1 1.4 -0.64 2 -1.15 c 0.32 -0.27 0.69 -0.38 0.9 -0.84 c 0.41 -0.91 1.46 -1.12 2.19 -1.68 c 1 -0.73 2.13 -1.19 2.51 -2.56 c 0.08 -0.32 0.83 -0.47 1.29 -0.66 c 0 0 0.28 0.17 0.31 0.29 s -0.15 0.44 -0.32 0.6 C 43.78 89 42 90.62 40.16 92.24 a 58.42 58.42 0 0 1 -6 4.68 c -0.19 0.13 -0.46 0.28 -0.25 0.54 s 0.36 0.1 0.55 0.14 c 0.19 0.56 -0.22 0.85 -0.55 1.16 a 3.1 3.1 0 0 0 -0.76 0.85 c -0.75 1.25 -2.16 1.78 -3.09 2.86 c -0.34 0.39 -0.92 0.57 -1.15 1.12 s -0.64 0.54 -1.1 0.47 A 32.42 32.42 0 0 1 26.32 100.79 Z" stroke-linecap="round" />
</g>
		<g transform="matrix(1 0 0 1 -155.98 11.81)" id="Layer_1-2"  >
<path style="stroke: none; stroke-width: 1; stroke-dasharray: none; stroke-linecap: butt; stroke-dashoffset: 0; stroke-linejoin: miter; stroke-miterlimit: 4; fill: rgb(100,181,70); fill-rule: nonzero; opacity: 1;"  transform=" translate(-33.46, -76.57)" d="M 47.92 65.26 a 5.07 5.07 0 0 1 -2.26 2.52 c -3.81 2.18 -6.78 5.45 -10.41 7.85 c -3.48 2.3 -6.42 5.27 -9.81 7.67 a 10.33 10.33 0 0 1 -1.83 1.1 a 5.8 5.8 0 0 0 -3 3.38 l 0 0.53 L 19 84.89 c 0.57 -0.84 0.28 0.6 0.66 0.25 c 0.17 -0.17 0.44 0 0.55 -0.1 c 3 -2.33 6.24 -4.36 9.06 -6.92 a 22.24 22.24 0 0 1 4.68 -3.24 A 5.14 5.14 0 0 0 35.18 74 a 27.21 27.21 0 0 1 4.28 -3.42 a 67.74 67.74 0 0 0 6.37 -5.13 C 46.5 64.82 47.16 64.55 47.92 65.26 Z" stroke-linecap="round" />
</g>
		<g transform="matrix(1 0 0 1 -155.39 9.12)" id="Layer_1-2"  >
<path style="stroke: none; stroke-width: 1; stroke-dasharray: none; stroke-linecap: butt; stroke-dashoffset: 0; stroke-linejoin: miter; stroke-miterlimit: 4; fill: rgb(100,181,70); fill-rule: nonzero; opacity: 1;"  transform=" translate(-34.05, -73.88)" d="M 47.92 65.26 c -1.34 -0.59 -1.94 0.59 -2.82 1.15 c -1.48 1 -2.68 2.24 -4.12 3.26 a 54.38 54.38 0 0 0 -6.34 5.07 c -1.1 1.07 -2.83 1.38 -3.95 2.51 c -2.23 2.23 -4.89 3.91 -7.33 5.87 a 28.13 28.13 0 0 1 -3 2 c -0.16 0.1 -0.45 0 -0.68 0 a 1.52 1.52 0 0 1 1.27 -1.78 c 1.42 -0.42 2.38 -1.71 3.56 -2.58 c 1.62 -1.2 3.26 -2.35 4.78 -3.67 c 3.1 -2.69 6.55 -4.92 9.76 -7.48 c 1.39 -1.1 2.93 -2.13 4.39 -3.18 c 1 -0.7 2.19 -1.24 2.76 -2.49 c 0.16 -0.35 0.54 -0.46 0.05 -0.86 c -0.24 -0.19 0.1 -0.38 0.3 -0.49 l 1.89 2.17 Z" stroke-linecap="round" />
</g>
		<g transform="matrix(1 0 0 1 -140.03 20.93)" id="Layer_1-2"  >
<path style="stroke: none; stroke-width: 1; stroke-dasharray: none; stroke-linecap: butt; stroke-dashoffset: 0; stroke-linejoin: miter; stroke-miterlimit: 4; fill: rgb(123,193,66); fill-rule: nonzero; opacity: 1;"  transform=" translate(-49.41, -85.69)" d="M 57.77 80.58 c -0.26 0.2 -0.48 0.42 -0.3 0.79 c 0.05 0.12 0.25 0.33 0 0.33 c -1.14 0 -2 0.8 -2.89 1.24 a 5.12 5.12 0 0 0 -2.09 2.34 c -0.14 0.25 -0.26 0.6 -0.54 0.53 c -1.74 -0.43 -2.37 0.8 -3 2 a 10.72 10.72 0 0 1 -1.8 1 a 7.35 7.35 0 0 0 -3.25 2.64 a 2.43 2.43 0 0 1 -0.7 0.62 c -0.13 0.21 -0.37 0.3 -0.53 0.46 c -0.66 0.65 -1.2 0.69 -1.63 -0.22 c 1.71 -1.45 3.25 -3.08 5 -4.47 a 23.88 23.88 0 0 0 2 -2 a 75.19 75.19 0 0 1 7.2 -6.49 a 4.34 4.34 0 0 0 0.54 -0.64 c 0.28 0.18 0.17 0.8 0.78 0.57 c 0 -0.26 -0.51 -0.64 0.05 -0.9 C 57.36 78.93 57.34 79.88 57.77 80.58 Z" stroke-linecap="round" />
</g>
		<g transform="matrix(1 0 0 1 -140.09 57.72)" id="Layer_1-2"  >
<path style="stroke: none; stroke-width: 1; stroke-dasharray: none; stroke-linecap: butt; stroke-dashoffset: 0; stroke-linejoin: miter; stroke-miterlimit: 4; fill: rgb(159,204,59); fill-rule: nonzero; opacity: 1;"  transform=" translate(-49.34, -122.48)" d="M 54.39 120.36 c -1.58 0.82 -2.68 2.25 -4.1 3.27 a 7.29 7.29 0 0 1 -1.34 1 c -0.82 0.32 -0.12 1.29 -0.73 1.55 s -0.87 -0.87 -1.51 -0.26 a 4.2 4.2 0 0 1 -2.41 -1.41 c 1.05 0 1.27 -1.12 2 -1.63 a 8.58 8.58 0 0 1 1.4 -1.06 a 9.73 9.73 0 0 0 3 -2.41 c 1 -1.06 1.78 -0.72 2.66 0 C 53.74 119.68 54.06 120 54.39 120.36 Z" stroke-linecap="round" />
</g>
		<g transform="matrix(1 0 0 1 -146.5 52.12)" id="Layer_1-2"  >
<path style="stroke: none; stroke-width: 1; stroke-dasharray: none; stroke-linecap: butt; stroke-dashoffset: 0; stroke-linejoin: miter; stroke-miterlimit: 4; fill: rgb(149,201,61); fill-rule: nonzero; opacity: 1;"  transform=" translate(-42.94, -116.88)" d="M 48.16 115.33 a 2.22 2.22 0 0 0 -2.85 1 a 8.89 8.89 0 0 1 -2.79 2.47 a 10.36 10.36 0 0 1 -3.24 1.87 l -1.59 -1.7 c 1.65 -1.25 3 -2.82 4.77 -4 c 0.93 -0.61 1.84 -1.25 2.75 -1.88 a 2.62 2.62 0 0 1 0.91 0.43 c 0.44 0.32 0.94 0.54 1.4 0.83 S 48.3 114.77 48.16 115.33 Z" stroke-linecap="round" />
</g>
		<g transform="matrix(1 0 0 1 -148.45 50.53)" id="Layer_1-2"  >
<path style="stroke: none; stroke-width: 1; stroke-dasharray: none; stroke-linecap: butt; stroke-dashoffset: 0; stroke-linejoin: miter; stroke-miterlimit: 4; fill: rgb(147,200,62); fill-rule: nonzero; opacity: 1;"  transform=" translate(-40.99, -115.29)" d="M 45.29 113.17 c -0.8 1.08 -2.06 1.54 -3.07 2.34 A 18.16 18.16 0 0 0 38.43 119 c -0.23 0.32 -0.48 -0.15 -0.74 -0.06 a 4.49 4.49 0 0 1 -1 -1.22 a 2.93 2.93 0 0 1 1.41 -2.7 a 25.57 25.57 0 0 0 3.73 -3.24 a 0.75 0.75 0 0 1 0.85 -0.27 l 1 0.48 C 44.23 112.29 45.1 112.25 45.29 113.17 Z" stroke-linecap="round" />
</g>
		<g transform="matrix(1 0 0 1 -155.25 44.43)" id="Layer_1-2"  >
<path style="stroke: none; stroke-width: 1; stroke-dasharray: none; stroke-linecap: butt; stroke-dashoffset: 0; stroke-linejoin: miter; stroke-miterlimit: 4; fill: rgb(135,197,64); fill-rule: nonzero; opacity: 1;"  transform=" translate(-34.19, -109.19)" d="M 30.51 108.85 c 0.71 -0.56 0.47 0.72 1.1 0.4 a 3 3 0 0 0 0.2 -0.85 c 0 -1.29 0.3 -1.72 1.59 -1.74 c 0.5 0 0.73 -0.14 0.88 -0.58 a 0.7 0.7 0 0 1 1.21 -0.37 c 0.82 0.61 1.58 1.3 2.37 2 c -0.93 1.43 -2.45 2.14 -3.8 3 c -0.49 0.34 -0.77 0.55 -0.61 1.18 a 0.92 0.92 0 0 1 -0.38 1 A 28.57 28.57 0 0 1 30.51 108.85 Z" stroke-linecap="round" />
</g>
		<g transform="matrix(1 0 0 1 -157.89 38.01)" id="Layer_1-2"  >
<path style="stroke: none; stroke-width: 1; stroke-dasharray: none; stroke-linecap: butt; stroke-dashoffset: 0; stroke-linejoin: miter; stroke-miterlimit: 4; fill: rgb(126,194,66); fill-rule: nonzero; opacity: 1;"  transform=" translate(-31.55, -102.77)" d="M 27.85 104.06 c 1 -0.4 1.55 -1.42 2.34 -2.09 a 16 16 0 0 0 2.87 -2.45 c 0.44 -0.36 0.88 -0.65 1.44 -0.24 c 0.24 0.48 0.86 0.77 0.72 1.44 c 0.06 0.75 -0.44 1.23 -0.87 1.76 s -0.67 1 0.14 1.49 a 1 1 0 0 1 0.56 1.2 a 2.52 2.52 0 0 0 -3.53 -0.64 c -0.19 0.1 -0.47 0 -0.71 0 c -0.72 0 -1.7 -0.31 -1 1.06 c 0.23 0.43 -0.49 0.52 -0.63 0.88 Z" stroke-linecap="round" />
</g>
		<g transform="matrix(1 0 0 1 -150.76 49.25)" id="Layer_1-2"  >
<path style="stroke: none; stroke-width: 1; stroke-dasharray: none; stroke-linecap: butt; stroke-dashoffset: 0; stroke-linejoin: miter; stroke-miterlimit: 4; fill: rgb(143,199,63); fill-rule: nonzero; opacity: 1;"  transform=" translate(-38.68, -114.01)" d="M 42.65 111.5 c -0.81 0.73 -1.63 1.46 -2.42 2.21 a 5.29 5.29 0 0 1 -1.2 1 a 4.83 4.83 0 0 0 -2.37 3 a 8.79 8.79 0 0 1 -1.95 -2.61 l 0.45 -0.12 c -0.49 -1.54 1.26 -1.24 1.68 -2 c 0.14 -0.27 0.48 -0.24 0.76 -0.25 s 0.67 0 0.71 -0.28 c 0.1 -0.71 0.69 -0.88 1.13 -1.25 C 40.9 109.92 41.41 110 42.65 111.5 Z" stroke-linecap="round" />
</g>
		<g transform="matrix(1 0 0 1 -127.58 64.43)" id="Layer_1-2"  >
<path style="stroke: none; stroke-width: 1; stroke-dasharray: none; stroke-linecap: butt; stroke-dashoffset: 0; stroke-linejoin: miter; stroke-miterlimit: 4; fill: rgb(146,200,62); fill-rule: nonzero; opacity: 1;"  transform=" translate(-61.86, -129.19)" d="M 64.69 129.45 H 59 c -0.08 -0.16 0 -0.27 0.14 -0.33 a 31 31 0 0 0 4.81 -0.18 a 1.05 1.05 0 0 1 0.68 0.14 A 0.26 0.26 0 0 1 64.69 129.45 Z" stroke-linecap="round" />
</g>
		<g transform="matrix(1 0 0 1 -134.88 9.61)" id="Layer_1-2"  >
<path style="stroke: none; stroke-width: 1; stroke-dasharray: none; stroke-linecap: butt; stroke-dashoffset: 0; stroke-linejoin: miter; stroke-miterlimit: 4; fill: rgb(119,192,67); fill-rule: nonzero; opacity: 1;"  transform=" translate(-54.56, -74.37)" d="M 55.09 75.32 a 1.53 1.53 0 0 1 -1 -1.9 C 54.37 74.09 55 74.58 55.09 75.32 Z" stroke-linecap="round" />
</g>
		<g transform="matrix(1 0 0 1 -167.09 26.96)" id="Layer_1-2"  >
<path style="stroke: none; stroke-width: 1; stroke-dasharray: none; stroke-linecap: butt; stroke-dashoffset: 0; stroke-linejoin: miter; stroke-miterlimit: 4; fill: rgb(110,190,69); fill-rule: nonzero; opacity: 1;"  transform=" translate(-22.35, -91.72)" d="M 22 91.43 l 0.13 -0.31 c 0 0.43 1 0.58 0.37 1.21 A 0.8 0.8 0 0 1 22 91.43 Z" stroke-linecap="round" />
</g>
		<g transform="matrix(1 0 0 1 -131.5 64.55)" id="Layer_1-2"  >
<path style="stroke: none; stroke-width: 1; stroke-dasharray: none; stroke-linecap: butt; stroke-dashoffset: 0; stroke-linejoin: miter; stroke-miterlimit: 4; fill: rgb(123,193,66); fill-rule: nonzero; opacity: 1;"  transform=" translate(-57.94, -129.31)" d="M 58.94 129.24 c 0 0.07 0 0.14 0 0.21 a 3.36 3.36 0 0 1 -2 -0.21 l 0.31 0 A 2.77 2.77 0 0 1 58.94 129.24 Z" stroke-linecap="round" />
</g>
		<g transform="matrix(1 0 0 1 -153.45 -10.51)" id="Layer_1-2"  >
<path style="stroke: none; stroke-width: 1; stroke-dasharray: none; stroke-linecap: butt; stroke-dashoffset: 0; stroke-linejoin: miter; stroke-miterlimit: 4; fill: rgb(86,167,70); fill-rule: nonzero; opacity: 1;"  transform=" translate(-35.98, -54.25)" d="M 36.42 54.47 c -0.58 0.31 -0.7 -0.15 -0.87 -0.52 A 0.77 0.77 0 0 1 36.42 54.47 Z" stroke-linecap="round" />
</g>
		<g transform="matrix(1 0 0 1 -123.89 64.54)" id="Layer_1-2"  >
<path style="stroke: none; stroke-width: 1; stroke-dasharray: none; stroke-linecap: butt; stroke-dashoffset: 0; stroke-linejoin: miter; stroke-miterlimit: 4; fill: rgb(121,191,67); fill-rule: nonzero; opacity: 1;"  transform=" translate(-65.55, -129.3)" d="M 64.69 129.45 a 1.49 1.49 0 0 0 0 -0.21 c 0.54 -0.37 1.09 -0.09 1.64 0 l 0.08 0.07 A 2.44 2.44 0 0 1 64.69 129.45 Z" stroke-linecap="round" />
</g>
		<g transform="matrix(1 0 0 1 -119.45 63.74)" id="Layer_1-2"  >
<path style="stroke: none; stroke-width: 1; stroke-dasharray: none; stroke-linecap: butt; stroke-dashoffset: 0; stroke-linejoin: miter; stroke-miterlimit: 4; fill: rgb(175,209,54); fill-rule: nonzero; opacity: 1;"  transform=" translate(-69.99, -128.5)" d="M 69.49 128.73 c 0 -0.58 0.23 -0.63 1 -0.22 C 70.11 128.51 69.86 128.87 69.49 128.73 Z" stroke-linecap="round" />
</g>
		<g transform="matrix(1 0 0 1 -136.03 7.91)" id="Layer_1-2"  >
<path style="stroke: none; stroke-width: 1; stroke-dasharray: none; stroke-linecap: butt; stroke-dashoffset: 0; stroke-linejoin: miter; stroke-miterlimit: 4; fill: rgb(115,191,68); fill-rule: nonzero; opacity: 1;"  transform=" translate(-53.41, -72.67)" d="M 53.74 73.13 c -0.34 -0.22 -1.08 -0.3 -0.34 -0.92 A 1.26 1.26 0 0 1 53.74 73.13 Z" stroke-linecap="round" />
</g>
		<g transform="matrix(1 0 0 1 -133.67 64.36)" id="Layer_1-2"  >
<path style="stroke: none; stroke-width: 1; stroke-dasharray: none; stroke-linecap: butt; stroke-dashoffset: 0; stroke-linejoin: miter; stroke-miterlimit: 4; fill: rgb(111,184,68); fill-rule: nonzero; opacity: 1;"  transform=" translate(-55.77, -129.12)" d="M 55.18 129 c 0.4 0 0.83 -0.11 1.17 0.24 C 55.94 129.24 55.51 129.36 55.18 129 Z" stroke-linecap="round" />
</g>
		<g transform="matrix(1 0 0 1 -121.55 64.35)" id="Layer_1-2"  >
<path style="stroke: none; stroke-width: 1; stroke-dasharray: none; stroke-linecap: butt; stroke-dashoffset: 0; stroke-linejoin: miter; stroke-miterlimit: 4; fill: rgb(106,182,69); fill-rule: nonzero; opacity: 1;"  transform=" translate(-67.89, -129.11)" d="M 67.3 129.21 c 0.34 -0.34 0.78 -0.18 1.18 -0.24 C 68.15 129.38 67.71 129.23 67.3 129.21 Z" stroke-linecap="round" />
</g>
		<g transform="matrix(1 0 0 1 -144.83 -4.1)" id="Layer_1-2"  >
<path style="stroke: none; stroke-width: 1; stroke-dasharray: none; stroke-linecap: butt; stroke-dashoffset: 0; stroke-linejoin: miter; stroke-miterlimit: 4; fill: rgb(98,178,70); fill-rule: nonzero; opacity: 1;"  transform=" translate(-44.61, -60.66)" d="M 44.84 60.88 c -0.34 0.08 -0.54 -0.12 -0.45 -0.45 C 44.72 60.4 44.86 60.56 44.84 60.88 Z" stroke-linecap="round" />
</g>
		<g transform="matrix(1 0 0 1 -136.3 38.66)" id="Layer_1-2"  >
<path style="stroke: none; stroke-width: 1; stroke-dasharray: none; stroke-linecap: butt; stroke-dashoffset: 0; stroke-linejoin: miter; stroke-miterlimit: 4; fill: rgb(143,199,63); fill-rule: nonzero; opacity: 1;"  transform=" translate(-53.14, -103.42)" d="M 45.29 113.17 L 43.61 112 c 0.2 0 0.46 -0.08 0.23 -0.34 a 7.42 7.42 0 0 0 -1 -1 c -1.06 -0.86 -0.92 -1.09 0.16 -1.86 a 10.49 10.49 0 0 0 2.16 -2.1 a 3.45 3.45 0 0 1 1.85 -1.2 a 2.61 2.61 0 0 0 1.62 -1.12 a 2.44 2.44 0 0 1 1.8 -1.37 c 0.82 -0.2 1.45 -1.24 2.1 -2 A 4.91 4.91 0 0 1 55 99.35 c 0.8 -0.19 0.95 -1.12 1.68 -1.35 c 1 -0.33 1.54 -1.23 2.21 -1.94 a 14.8 14.8 0 0 1 4.37 -3 L 64 94 v 0.47 a 1.55 1.55 0 0 0 0.1 0.93 a 0.73 0.73 0 0 1 -0.49 1 c -1 0.18 -1.5 1 -2.23 1.52 q -4.6 3.32 -9 6.87 c -1.92 1.54 -4 2.93 -5.79 4.59 A 15.21 15.21 0 0 1 45 110.45 c -0.6 0.44 -0.66 0.85 0 1.29 c 0.43 0.28 0.79 0.67 1.22 1 a 1 1 0 0 1 0.42 0.57 c 0 0.39 -0.18 0.62 -0.61 0.37 A 0.71 0.71 0 0 1 45.29 113.17 Z" stroke-linecap="round" />
</g>
		<g transform="matrix(1 0 0 1 -127.64 52.53)" id="Layer_1-2"  >
<path style="stroke: none; stroke-width: 1; stroke-dasharray: none; stroke-linecap: butt; stroke-dashoffset: 0; stroke-linejoin: miter; stroke-miterlimit: 4; fill: rgb(159,204,59); fill-rule: nonzero; opacity: 1;"  transform=" translate(-61.8, -117.29)" d="M 63.26 129 c -0.63 -1.53 -2 -2.39 -3.12 -3.48 c -1.7 -1.69 -3.51 -3.28 -5.27 -4.91 c 0.27 -0.14 0.53 -0.3 0.21 -0.62 a 7.18 7.18 0 0 0 -0.74 -0.6 c -1.6 -1.17 -1.49 -1.66 0.07 -2.78 a 63 63 0 0 0 8 -6.29 a 8.37 8.37 0 0 1 2.33 -1.71 a 12.06 12.06 0 0 0 3.91 -3.16 s 0.22 0 0.34 0.06 c 0.47 0.89 1 1.77 1.42 2.65 A 3.1 3.1 0 0 1 68 109.8 c -0.35 0 -0.51 0.32 -0.72 0.57 a 9.7 9.7 0 0 1 -3.11 2.5 a 14.43 14.43 0 0 0 -3.36 2.36 a 37.54 37.54 0 0 1 -4.63 4 c -0.89 0.59 -0.45 1.14 0 1.64 c 1.88 1.9 3.79 3.76 5.65 5.67 A 7.24 7.24 0 0 0 65.42 129 A 4.27 4.27 0 0 1 63.26 129 Z" stroke-linecap="round" />
</g>
		<g transform="matrix(1 0 0 1 -134.8 38.95)" id="Layer_1-2"  >
<path style="stroke: none; stroke-width: 1; stroke-dasharray: none; stroke-linecap: butt; stroke-dashoffset: 0; stroke-linejoin: miter; stroke-miterlimit: 4; fill: rgb(147,200,62); fill-rule: nonzero; opacity: 1;"  transform=" translate(-54.64, -103.71)" d="M 46 112.93 c -0.34 -0.28 -0.66 -0.58 -1 -0.84 c -1.52 -1.09 -1.41 -1 0 -2 c 1.78 -1.26 3.38 -2.74 5.15 -4 c 2.59 -1.82 4.92 -3.95 7.48 -5.8 a 37.44 37.44 0 0 0 4.83 -3.76 a 0.89 0.89 0 0 1 0.61 -0.26 c 0.81 -0.07 1.1 -0.37 0.58 -1.13 c -0.24 -0.34 -0.1 -0.61 0.34 -0.66 l 0 0 c 0.2 0.2 0.19 0.48 0.27 0.72 a 1.07 1.07 0 0 0 0.47 0.91 c 0.3 0.18 0.22 0.56 0.41 0.8 l 0.24 1 c -0.41 1 -1.46 1.41 -2.24 2 c -3.47 2.73 -7 5.35 -10.54 8 C 50.42 109.57 48.32 111.4 46 112.93 Z" stroke-linecap="round" />
</g>
		<g transform="matrix(1 0 0 1 -133.24 41.38)" id="Layer_1-2"  >
<path style="stroke: none; stroke-width: 1; stroke-dasharray: none; stroke-linecap: butt; stroke-dashoffset: 0; stroke-linejoin: miter; stroke-miterlimit: 4; fill: rgb(149,201,61); fill-rule: nonzero; opacity: 1;"  transform=" translate(-56.2, -106.14)" d="M 46 112.93 c 0.83 -1.31 2.25 -2 3.36 -3 c 1.46 -1.33 3.18 -2.38 4.77 -3.57 c 3.06 -2.28 6.16 -4.51 9.14 -6.9 c 0.69 -0.56 1.47 -1 2.13 -1.61 a 6.63 6.63 0 0 1 1 2.38 c -0.43 0.14 -0.14 0.69 -0.7 1 c -2 0.92 -3.38 2.8 -5.41 3.73 a 1.1 1.1 0 0 0 -0.43 0.4 c -1 1.39 -2.64 1.85 -3.82 2.92 c -1.63 1.49 -3.78 2.3 -5.14 4.15 c -0.44 0.58 -1.38 0.71 -2 1.25 c -0.27 0.24 -0.59 0.41 -0.75 0.75 c -0.84 0 -1.26 -0.6 -1.68 -1.2 Z" stroke-linecap="round" />
</g>
		<g transform="matrix(1 0 0 1 -125.21 30.11)" id="Layer_1-2"  >
<path style="stroke: none; stroke-width: 1; stroke-dasharray: none; stroke-linecap: butt; stroke-dashoffset: 0; stroke-linejoin: miter; stroke-miterlimit: 4; fill: rgb(80,161,69); fill-rule: nonzero; opacity: 1;"  transform=" translate(-64.23, -94.87)" d="M 64.22 95.21 C 64 95 64 94.74 64 94.46 c 0.81 -0.12 0.29 0.51 0.43 0.76 C 64.37 95.32 64.29 95.32 64.22 95.21 Z" stroke-linecap="round" />
</g>
		<g transform="matrix(1 0 0 1 -124.54 31.64)" id="Layer_1-2"  >
<path style="stroke: none; stroke-width: 1; stroke-dasharray: none; stroke-linecap: butt; stroke-dashoffset: 0; stroke-linejoin: miter; stroke-miterlimit: 4; fill: rgb(80,161,69); fill-rule: nonzero; opacity: 1;"  transform=" translate(-64.9, -96.41)" d="M 65.17 96.89 l -0.48 -0.73 c -0.07 -0.06 -0.09 -0.11 -0.06 -0.17 s 0.06 -0.07 0.09 -0.07 C 65.35 96 65.13 96.52 65.17 96.89 Z" stroke-linecap="round" />
</g>
		<g transform="matrix(1 0 0 1 -122.83 35.87)" id="Layer_1-2"  >
<path style="stroke: none; stroke-width: 1; stroke-dasharray: none; stroke-linecap: butt; stroke-dashoffset: 0; stroke-linejoin: miter; stroke-miterlimit: 4; fill: rgb(149,201,61); fill-rule: nonzero; opacity: 1;"  transform=" translate(-66.61, -100.63)" d="M 66.62 101 c -0.29 -0.18 -0.24 -0.47 -0.23 -0.74 a 0.73 0.73 0 0 1 0.44 0.74 Z" stroke-linecap="round" />
</g>
		<g transform="matrix(1 0 0 1 -124.96 30.9)" id="Layer_1-2"  >
<path style="stroke: none; stroke-width: 1; stroke-dasharray: none; stroke-linecap: butt; stroke-dashoffset: 0; stroke-linejoin: miter; stroke-miterlimit: 4; fill: rgb(143,199,63); fill-rule: nonzero; opacity: 1;"  transform=" translate(-64.48, -95.66)" d="M 64.72 95.92 l 0 0.24 c -0.43 -0.18 -0.49 -0.54 -0.47 -1 h 0.23 Z" stroke-linecap="round" />
</g>
		<g transform="matrix(1 0 0 1 -127.63 64.34)" id="Layer_1-2"  >
<path style="stroke: none; stroke-width: 1; stroke-dasharray: none; stroke-linecap: butt; stroke-dashoffset: 0; stroke-linejoin: miter; stroke-miterlimit: 4; fill: rgb(175,209,54); fill-rule: nonzero; opacity: 1;"  transform=" translate(-61.82, -129.1)" d="M 63.26 129 h 2.16 c 0.31 0.05 0.68 -0.11 0.93 0.22 l -1.64 0 H 58.94 l -1.66 0 c 1.3 -0.46 2.64 -0.12 4 -0.21 C 61.92 129 62.59 129 63.26 129 Z" stroke-linecap="round" />
</g>
		<g transform="matrix(1 0 0 1 -127.83 24.21)" id="Layer_1-2"  >
<path style="stroke: none; stroke-width: 1; stroke-dasharray: none; stroke-linecap: butt; stroke-dashoffset: 0; stroke-linejoin: miter; stroke-miterlimit: 4; fill: rgb(135,197,64); fill-rule: nonzero; opacity: 1;"  transform=" translate(-61.61, -88.97)" d="M 61.35 88.49 l 0.44 0.25 c 0 0.16 0 0.32 0 0.48 s 0.1 0.11 0.07 0.16 s -0.06 0.08 -0.08 0.08 C 61.18 89.37 61.39 88.87 61.35 88.49 Z" stroke-linecap="round" />
</g>
		<g transform="matrix(1 0 0 1 -127.37 24.96)" id="Layer_1-2"  >
<path style="stroke: none; stroke-width: 1; stroke-dasharray: none; stroke-linecap: butt; stroke-dashoffset: 0; stroke-linejoin: miter; stroke-miterlimit: 4; fill: rgb(83,164,70); fill-rule: nonzero; opacity: 1;"  transform=" translate(-62.07, -89.72)" d="M 61.82 89.46 c 0 -0.08 0 -0.16 0 -0.24 a 0.84 0.84 0 0 1 0.47 1 Z" stroke-linecap="round" />
</g>
		<g transform="matrix(1 0 0 1 -151.32 31.02)" id="Layer_1-2"  >
<path style="stroke: none; stroke-width: 1; stroke-dasharray: none; stroke-linecap: butt; stroke-dashoffset: 0; stroke-linejoin: miter; stroke-miterlimit: 4; fill: rgb(125,194,66); fill-rule: nonzero; opacity: 1;"  transform=" translate(-38.12, -95.78)" d="M 34.5 99.28 l -1.44 0.24 c 0 -1 1.31 -1 1.44 -1.92 a 1.49 1.49 0 0 1 1.2 -0.72 a 6.12 6.12 0 0 0 0.72 -0.72 a 12.74 12.74 0 0 1 3.35 -2.63 a 2.28 2.28 0 0 0 1 -1 l 0.24 -0.24 c 0.82 0.79 1.46 0 2.16 -0.24 c -0.52 1.44 -2 1.89 -3 2.76 s -2.29 1.84 -3.48 2.7 C 35.92 98.09 35.27 98.77 34.5 99.28 Z" stroke-linecap="round" />
</g>
		<g transform="matrix(1 0 0 1 -149.21 28.31)" id="Layer_1-2"  >
<path style="stroke: none; stroke-width: 1; stroke-dasharray: none; stroke-linecap: butt; stroke-dashoffset: 0; stroke-linejoin: miter; stroke-miterlimit: 4; fill: rgb(121,193,67); fill-rule: nonzero; opacity: 1;"  transform=" translate(-40.23, -93.07)" d="M 40.73 92.57 c 0.06 0.7 -0.4 0.87 -1 1 A 2.46 2.46 0 0 1 40.73 92.57 Z" stroke-linecap="round" />
</g>
		<g transform="matrix(1 0 0 1 -153.38 31.76)" id="Layer_1-2"  >
<path style="stroke: none; stroke-width: 1; stroke-dasharray: none; stroke-linecap: butt; stroke-dashoffset: 0; stroke-linejoin: miter; stroke-miterlimit: 4; fill: rgb(121,193,67); fill-rule: nonzero; opacity: 1;"  transform=" translate(-36.06, -96.52)" d="M 36.42 96.16 c 0 0.54 -0.19 0.77 -0.72 0.72 A 0.67 0.67 0 0 1 36.42 96.16 Z" stroke-linecap="round" />
</g>
		<g transform="matrix(1 0 0 1 -144.72 58.86)" id="Layer_1-2"  >
<path style="stroke: none; stroke-width: 1; stroke-dasharray: none; stroke-linecap: butt; stroke-dashoffset: 0; stroke-linejoin: miter; stroke-miterlimit: 4; fill: rgb(159,204,59); fill-rule: nonzero; opacity: 1;"  transform=" translate(-44.72, -123.62)" d="M 44.62 123.38 c 0.22 0 0.32 0.11 0.34 0.26 s -0.15 0.23 -0.17 0.22 a 0.87 0.87 0 0 1 -0.32 -0.25 S 44.57 123.45 44.62 123.38 Z" stroke-linecap="round" />
</g>
		<g transform="matrix(1 0 0 1 -141.93 49.56)" id="Layer_1-2"  >
<path style="stroke: none; stroke-width: 1; stroke-dasharray: none; stroke-linecap: butt; stroke-dashoffset: 0; stroke-linejoin: miter; stroke-miterlimit: 4; fill: rgb(147,200,62); fill-rule: nonzero; opacity: 1;"  transform=" translate(-47.52, -114.32)" d="M 46.48 113.17 l 1.68 1.2 c 0.25 0.37 0.86 0.43 0.87 1 c -0.31 0.27 -0.58 -0.12 -0.87 0 c -0.41 -1 -1.66 -0.83 -2.16 -1.68 C 46.32 113.64 46.48 113.49 46.48 113.17 Z" stroke-linecap="round" />
</g>
		<g transform="matrix(1 0 0 1 -149.23 55.94)" id="Layer_1-2"  >
<path style="stroke: none; stroke-width: 1; stroke-dasharray: none; stroke-linecap: butt; stroke-dashoffset: 0; stroke-linejoin: miter; stroke-miterlimit: 4; fill: rgb(149,201,61); fill-rule: nonzero; opacity: 1;"  transform=" translate(-40.21, -120.7)" d="M 39.75 120.87 c 0.21 -0.35 0.57 -0.27 0.93 -0.39 c -0.16 0.77 -0.64 0.28 -0.94 0.38 Z" stroke-linecap="round" />
</g>
		<g transform="matrix(1 0 0 1 -143.44 25.18)" id="Layer_1-2"  >
<path style="stroke: none; stroke-width: 1; stroke-dasharray: none; stroke-linecap: butt; stroke-dashoffset: 0; stroke-linejoin: miter; stroke-miterlimit: 4; fill: rgb(125,194,66); fill-rule: nonzero; opacity: 1;"  transform=" translate(-46.01, -89.94)" d="M 43.13 92.09 c 1.16 -2.44 3.42 -3.43 5.75 -4.31 c -0.15 1.07 -1.32 1.08 -1.89 1.78 c -0.73 0.91 -2 1.29 -2.76 2.25 C 44 92.16 43.52 92.08 43.13 92.09 Z" stroke-linecap="round" />
</g>
</g>
</g>
</svg>